<?xml version="1.0" standalone="no"?>
<!DOCTYPE svg PUBLIC "-//W3C//DTD SVG 20010904//EN"
 "http://www.w3.org/TR/2001/REC-SVG-20010904/DTD/svg10.dtd">
<svg version="1.0" xmlns="http://www.w3.org/2000/svg"
 width="422.000000pt" height="716.000000pt" viewBox="0 0 422.000000 716.000000"
 preserveAspectRatio="xMidYMid meet">

<g transform="translate(0.000000,716.000000) scale(0.100000,-0.100000)"
fill="#000000" stroke="none">
<path d="M1835 7124 c-28 -31 -36 -34 -53 -25 -30 16 -69 14 -98 -5 -19 -13
-37 -15 -79 -10 -79 9 -154 -25 -175 -80 -5 -13 -2 -66 7 -128 l15 -106 -25
-38 c-14 -20 -38 -63 -53 -94 -16 -32 -36 -60 -46 -64 -9 -3 -48 9 -87 25 -38
17 -80 31 -93 31 -47 0 -93 21 -132 59 -23 22 -58 47 -78 56 -70 29 -160 14
-202 -34 -11 -12 -31 -21 -48 -21 -75 0 -155 -62 -219 -172 -43 -73 -107 -128
-180 -153 -79 -28 -107 -69 -124 -178 -5 -28 -21 -55 -62 -99 -64 -70 -96
-136 -95 -194 0 -56 17 -83 53 -91 23 -4 29 -11 29 -32 0 -30 65 -101 92 -101
11 0 34 -31 62 -83 25 -45 61 -98 81 -117 20 -19 51 -55 67 -79 30 -43 31 -43
80 -39 61 6 95 31 124 89 25 48 28 45 39 -34 6 -42 3 -51 -19 -78 -16 -18 -26
-43 -26 -61 0 -21 -14 -49 -43 -86 -38 -50 -42 -61 -42 -111 0 -31 -6 -66 -13
-79 -8 -14 -13 -56 -13 -110 1 -48 -2 -104 -5 -124 -8 -46 9 -98 40 -128 20
-18 23 -29 19 -56 -9 -52 23 -120 89 -191 35 -38 58 -71 58 -85 0 -34 33 -82
74 -107 27 -17 36 -29 36 -49 0 -54 20 -100 52 -120 l31 -20 2 -153 c1 -136 6
-175 39 -332 l38 -178 -26 -102 c-18 -71 -26 -128 -26 -188 0 -102 -13 -180
-39 -229 l-18 -35 -82 3 c-78 4 -82 3 -110 -26 -16 -16 -34 -48 -41 -70 -7
-29 -19 -46 -38 -56 -34 -18 -68 -54 -76 -82 -6 -20 0 -59 19 -121 6 -18 0
-26 -32 -46 -22 -14 -46 -39 -53 -56 -10 -24 -19 -31 -40 -31 -40 0 -70 -41
-70 -96 0 -23 -4 -45 -9 -48 -8 -5 -13 -42 -28 -196 -4 -47 -12 -73 -28 -92
-48 -58 -44 -138 10 -169 l32 -19 6 -109 c5 -97 9 -117 41 -184 19 -42 38 -88
42 -102 4 -14 25 -38 52 -56 45 -30 118 -47 289 -66 l52 -6 -16 -30 c-19 -37
-13 -115 11 -151 9 -14 40 -38 69 -53 47 -24 67 -27 202 -34 386 -19 1309 -31
1750 -22 l460 8 56 28 c38 18 66 41 85 69 26 37 29 50 29 116 l0 74 90 27
c153 46 223 94 260 176 12 29 30 55 39 58 9 4 16 17 16 30 0 13 9 32 20 42 21
19 25 38 36 150 5 63 9 73 42 104 33 31 36 39 36 87 0 49 -3 56 -37 88 -37 33
-38 37 -36 93 1 32 -3 72 -9 88 -6 17 -14 43 -19 60 -5 18 -20 35 -36 43 -15
7 -27 21 -27 31 0 10 -11 28 -25 41 -14 13 -25 31 -25 41 0 10 -15 30 -34 46
-41 33 -44 46 -27 95 17 50 1 98 -44 135 -18 16 -36 42 -39 59 -7 32 -43 73
-83 93 -12 6 -58 11 -102 11 -107 0 -123 16 -142 149 -5 36 -27 106 -49 158
-22 51 -40 106 -40 123 0 17 11 57 25 90 42 100 58 224 51 392 -7 173 -2 206
30 219 19 7 24 16 24 43 0 18 7 39 15 46 8 7 15 23 15 37 0 15 15 38 40 62 22
21 40 47 40 57 0 11 14 41 30 67 17 26 30 59 30 73 0 18 15 41 51 74 51 48 52
50 46 94 -4 26 -2 48 3 51 6 4 24 30 40 58 30 53 38 105 20 123 -7 7 -4 19 10
37 48 60 62 138 36 186 -9 17 -12 44 -9 82 5 46 1 65 -17 102 -19 38 -21 49
-11 61 15 18 7 48 -22 89 -10 16 -25 49 -33 73 -7 25 -26 62 -42 82 -37 48
-44 68 -27 82 20 17 53 -4 61 -38 12 -58 27 -81 61 -97 21 -10 45 -14 61 -10
34 8 168 145 202 205 14 25 47 60 74 80 131 93 218 203 218 276 0 38 -43 112
-92 159 -46 44 -58 73 -58 141 0 121 -52 169 -219 202 -51 11 -89 24 -94 32
-4 8 -18 42 -30 75 -45 117 -193 225 -308 225 -83 0 -163 -41 -232 -119 -39
-45 -60 -61 -79 -61 -14 0 -58 -9 -99 -20 -101 -28 -110 -24 -126 55 -3 17
-24 50 -46 74 -40 42 -41 44 -34 98 9 71 -2 127 -29 161 -13 15 -26 46 -29 70
-12 93 -58 127 -171 126 -72 -1 -84 1 -109 22 -34 28 -74 31 -115 7 -29 -16
-32 -16 -65 2 -33 18 -36 18 -61 1 -26 -16 -28 -16 -55 3 -28 20 -29 20 -52 2
-22 -18 -24 -18 -66 1 -37 16 -48 17 -83 7 -31 -9 -43 -10 -52 -1 -20 20 -39
14 -73 -24z m427 -51 c22 -20 24 -73 2 -115 -24 -46 -12 -76 34 -84 60 -11
174 -54 217 -83 53 -35 81 -80 95 -149 7 -31 16 -64 21 -72 60 -100 60 -101
-16 -176 -65 -66 -66 -66 -86 -48 -12 11 -30 35 -40 55 -10 21 -26 45 -36 55
-15 15 -16 18 -3 26 8 5 39 23 69 41 81 48 73 60 -16 24 -87 -34 -187 -43
-216 -18 -45 37 2 149 76 185 50 23 81 13 144 -47 29 -28 55 -48 58 -45 8 8
-73 115 -92 123 -87 35 -138 24 -206 -46 -60 -63 -72 -92 -52 -127 54 -98 54
-121 2 -140 -42 -15 -63 -15 -111 2 -54 19 -61 36 -36 92 26 60 25 84 -5 143
-44 87 -123 120 -208 87 -43 -16 -157 -109 -146 -120 3 -3 35 15 72 41 42 29
77 46 96 46 116 0 166 -130 71 -186 -38 -23 -70 -21 -169 8 -94 28 -111 30
-111 15 0 -5 10 -10 23 -10 12 0 42 -14 67 -30 25 -17 62 -33 83 -36 l38 -7
-31 -19 c-18 -10 -40 -37 -51 -62 -10 -24 -25 -49 -33 -55 -8 -6 -19 -25 -26
-41 -10 -24 -9 -33 4 -52 16 -22 23 -88 9 -88 -4 0 -19 12 -35 27 -35 33 -50
22 -17 -13 21 -22 24 -35 24 -97 l0 -72 58 -18 c36 -12 63 -27 73 -42 14 -21
14 -27 -1 -55 -14 -26 -19 -29 -31 -19 -9 7 -22 25 -29 40 -11 20 -27 30 -65
39 -29 7 -55 20 -60 30 -13 24 -13 87 0 95 15 9 12 47 -5 69 -23 30 -18 55 16
94 44 49 35 91 -31 152 -81 76 -88 109 -35 169 32 36 35 43 35 103 0 58 3 69
28 93 36 37 127 78 231 104 47 11 88 26 92 33 9 14 2 33 -28 78 -28 43 -30 86
-4 100 70 37 115 -44 76 -137 -8 -19 -15 -37 -15 -39 0 -2 18 -4 41 -4 l41 0
-6 38 c-4 20 -10 58 -12 84 -5 43 -4 49 18 57 36 14 58 -18 58 -85 0 -29 -4
-56 -10 -59 -22 -14 -10 -35 21 -35 30 0 31 1 24 33 -17 81 -17 118 -1 142 19
29 33 31 58 8z m154 3 c8 -21 -56 -166 -79 -178 -16 -8 -23 -7 -34 8 -16 21
-16 46 -3 96 17 61 101 114 116 74z m-525 -16 c45 -25 61 -116 27 -157 -13
-16 -28 -17 -28 -3 0 6 -13 29 -30 52 -34 46 -39 92 -12 107 21 13 20 13 43 1z
m-143 -24 c50 -26 102 -101 102 -146 0 -27 -24 -26 -43 3 -24 36 -65 77 -77
77 -6 0 2 -17 19 -37 17 -21 31 -43 31 -50 0 -22 -29 -14 -46 12 -26 40 -51
49 -79 31 -14 -9 -36 -16 -50 -16 -30 0 -33 -16 -5 -25 24 -8 25 -18 5 -35
-17 -14 -11 -30 12 -30 27 0 53 31 53 63 0 29 0 30 20 12 34 -31 26 -75 -21
-120 -67 -66 -82 -98 -76 -158 5 -44 2 -58 -18 -92 -36 -58 -34 -128 5 -205
24 -49 28 -64 20 -85 -6 -16 -16 -25 -26 -23 -9 2 -34 -14 -54 -34 -30 -30
-45 -38 -74 -38 -46 0 -57 22 -27 54 27 28 27 63 1 91 -21 22 -25 42 -22 103
3 42 29 53 54 23 10 -13 18 -37 18 -53 0 -40 17 -68 40 -68 51 0 24 109 -40
160 -58 46 -62 88 -18 212 6 15 16 29 24 32 22 9 54 -30 54 -66 l1 -33 14 34
c20 46 19 84 -5 114 -11 14 -20 36 -20 50 0 13 9 32 20 42 27 24 25 38 -4 31
-27 -7 -36 7 -36 55 0 19 10 40 26 56 22 22 32 25 70 20 38 -4 50 0 81 24 42
34 37 33 71 15z m879 -10 c27 -24 27 -26 13 -53 -9 -15 -31 -38 -50 -50 -71
-45 -77 -51 -60 -63 8 -5 26 -10 38 -10 14 0 36 -13 52 -30 27 -29 50 -39 50
-21 0 4 -13 25 -30 46 -35 44 -38 71 -10 80 26 8 50 -11 50 -38 0 -11 12 -40
26 -65 32 -54 27 -96 -16 -137 -33 -31 -32 -44 2 -38 18 3 32 -6 59 -39 20
-24 41 -54 48 -67 15 -26 8 -79 -16 -125 -15 -28 -14 -30 12 -49 25 -19 26
-23 20 -79 -5 -41 -3 -63 5 -74 10 -11 10 -23 2 -52 -6 -20 -10 -46 -9 -57 2
-16 -3 -19 -22 -17 -19 2 -22 -1 -16 -15 23 -54 -4 -84 -30 -34 -16 33 -43 44
-30 14 27 -65 27 -133 1 -133 -21 0 -53 43 -61 80 -4 19 -14 44 -21 55 -19 26
-18 80 2 96 13 11 17 10 25 -4 10 -18 29 -23 29 -9 0 5 -9 19 -20 32 -16 18
-19 32 -14 59 6 35 11 47 53 126 34 63 28 98 -30 187 l-51 78 12 65 c12 66 12
66 -15 94 -16 18 -42 31 -67 35 -78 13 -123 51 -111 96 7 26 58 52 88 44 27
-7 28 -5 19 20 -4 10 -18 16 -38 16 -39 0 -49 -7 -70 -48 -22 -42 -52 -40 -49
2 6 88 160 142 230 82z m-1690 -361 c12 -9 25 -31 29 -50 3 -20 13 -39 21 -43
17 -10 33 -115 26 -172 -5 -32 -12 -44 -35 -56 l-30 -16 21 -22 c31 -33 27
-56 -9 -56 -16 0 -30 -4 -30 -10 0 -5 4 -10 9 -10 13 0 51 -82 51 -111 0 -14
-6 -34 -14 -45 -13 -17 -17 -18 -38 -5 -97 60 -115 52 -39 -18 l54 -50 -5 -56
c-5 -62 -33 -103 -63 -92 -14 6 -14 10 -1 35 23 44 -4 82 -59 82 -42 0 -75 25
-75 57 0 22 3 24 23 19 46 -15 52 -12 55 25 3 30 -1 37 -23 47 -14 7 -36 12
-49 12 -13 0 -29 7 -36 15 -10 12 -10 15 1 15 35 0 90 23 118 49 27 26 31 36
31 83 -1 89 -57 178 -114 178 -16 0 -13 -4 13 -18 70 -38 94 -143 46 -201 -27
-32 -86 -57 -111 -47 -12 5 -8 13 20 39 19 18 38 46 42 62 6 24 2 33 -23 56
-19 16 -53 32 -84 38 -70 15 -95 32 -109 75 -22 69 39 129 95 92 30 -20 35
-20 35 -2 0 8 -12 24 -27 36 -19 15 -23 24 -15 32 8 8 20 4 47 -12 l36 -22 61
41 c67 45 116 53 155 26z m2570 -41 c16 -12 34 -32 42 -46 13 -23 12 -28 -8
-57 -18 -25 -19 -31 -7 -31 8 0 25 14 38 30 12 17 25 30 30 30 12 0 10 -34 -4
-48 -9 -9 -8 -12 4 -12 9 0 20 5 23 10 24 38 36 -60 14 -103 -18 -34 -30 -38
-86 -31 -50 6 -53 5 -63 -21 -5 -14 -10 -40 -10 -56 0 -35 -14 -38 -32 -6 -12
22 -12 22 -18 -7 -6 -33 -17 -41 -76 -56 -64 -16 -94 -44 -94 -89 0 -42 -14
-61 -45 -61 -62 0 -60 63 6 163 35 54 48 83 44 97 -9 28 -25 25 -25 -5 0 -30
-20 -32 -45 -5 -16 17 -17 23 -5 45 11 21 10 28 -6 52 l-19 28 -6 -75 c-3 -41
-11 -85 -17 -97 -18 -32 -64 -53 -115 -53 -48 0 -63 -11 -69 -49 -5 -36 -24
-36 -59 -2 -36 37 -35 65 3 69 18 2 34 14 44 32 14 22 28 30 74 39 62 12 94
38 105 84 9 33 -6 36 -20 5 -6 -13 -19 -24 -30 -26 -49 -7 -64 -14 -114 -52
-67 -49 -91 -52 -91 -10 0 37 58 104 130 150 47 30 51 31 112 22 35 -5 69 -11
77 -13 10 -3 17 9 24 36 22 94 101 148 204 143 43 -3 71 -10 90 -24z m-2350
-65 c24 -11 43 -24 43 -29 0 -14 -94 -22 -123 -11 -21 8 -27 17 -27 42 0 30 1
31 32 25 18 -4 52 -16 75 -27z m157 -27 c20 -19 46 -65 46 -83 0 -8 -6 -7 -18
4 -9 8 -29 20 -43 26 -22 8 -59 58 -59 79 0 9 56 -10 74 -26z m-103 -57 c24
-8 70 -36 102 -60 48 -39 57 -50 57 -78 0 -17 -4 -38 -9 -46 -13 -21 -36 0
-60 53 -22 49 -64 96 -86 96 -22 0 -19 -8 21 -52 41 -46 64 -94 64 -136 0 -37
-17 -52 -57 -52 -31 0 -33 -2 -27 -27 4 -16 14 -35 24 -43 21 -18 40 -53 40
-75 0 -20 -44 -65 -65 -65 -11 0 -15 11 -15 44 l0 43 -42 6 c-32 4 -51 15 -78
45 -20 22 -43 41 -50 44 -12 4 -12 11 -2 47 11 35 11 47 -2 73 -19 38 -19 38
-2 38 7 0 19 -14 26 -31 18 -44 46 -58 128 -65 68 -6 72 -6 72 13 0 33 -28 47
-103 54 -92 8 -110 27 -103 108 3 37 10 60 22 68 24 17 91 16 145 -2z m753 -1
c3 -9 6 -38 6 -64 0 -28 5 -52 13 -57 6 -4 47 -20 91 -35 l78 -27 40 20 c36
19 42 19 63 5 61 -40 159 6 160 75 0 41 29 53 41 17 38 -115 -80 -195 -205
-138 -50 23 -55 24 -45 9 13 -22 90 -49 142 -49 47 0 57 4 96 40 24 22 48 40
55 40 24 0 10 -53 -23 -86 -32 -32 -38 -34 -105 -34 -77 0 -124 15 -178 56
-38 29 -47 10 -10 -23 43 -40 90 -56 173 -61 97 -5 136 10 176 68 15 22 34 40
43 40 18 0 35 -31 35 -64 0 -31 -15 -35 -23 -6 -8 29 -22 25 -45 -14 -11 -19
-38 -46 -59 -60 -102 -67 -279 -29 -327 72 -16 34 -36 43 -36 17 0 -22 -83
-100 -122 -115 -18 -6 -55 -21 -81 -32 -52 -20 -90 -16 -85 9 2 9 20 21 41 27
41 12 40 26 0 26 -13 0 -40 7 -60 15 -56 24 -30 37 44 23 48 -9 75 -9 115 1
67 15 132 51 137 76 3 18 2 18 -20 2 -41 -29 -72 -39 -141 -44 -79 -7 -119 7
-148 47 -20 28 -27 60 -13 60 4 0 24 -18 43 -39 29 -31 46 -41 83 -46 58 -9
108 0 138 24 28 23 20 48 -18 56 -83 17 -98 33 -110 120 -4 35 -2 49 8 56 20
12 26 11 33 -7z m404 -56 c3 -40 -1 -52 -22 -73 -27 -27 -67 -33 -85 -12 -8
11 -3 17 25 30 31 15 35 22 34 50 -3 54 -1 59 23 55 19 -3 22 -10 25 -50z
m-1842 -9 c16 -17 52 -41 81 -54 83 -37 104 -90 45 -115 -15 -6 -38 -17 -52
-25 -14 -8 -44 -15 -67 -15 -24 0 -43 -4 -43 -10 0 -5 25 -10 56 -10 68 0 108
-21 130 -70 9 -19 23 -39 30 -43 12 -7 11 -14 -1 -45 -27 -63 -30 -140 -7
-197 l20 -50 -24 -45 c-20 -36 -23 -53 -18 -95 l6 -51 -45 -18 c-37 -14 -49
-25 -68 -64 -21 -44 -23 -46 -29 -22 l-6 25 -17 -32 c-20 -37 -44 -53 -81 -53
-22 0 -26 4 -26 30 0 17 9 48 20 69 18 35 23 39 69 43 55 5 95 38 85 70 -3 10
2 28 10 40 29 41 20 76 -33 126 -56 55 -116 151 -85 137 65 -28 125 -13 160
41 25 38 4 53 -29 20 -27 -27 -89 -37 -102 -16 -3 6 1 10 10 10 9 0 15 6 12
13 -2 8 -28 12 -78 12 -67 0 -80 -3 -125 -32 -80 -52 -115 -42 -44 12 34 26
39 35 40 73 0 56 30 87 93 96 26 4 47 11 47 16 0 6 -18 21 -39 34 -22 14 -42
30 -46 36 -12 20 -75 11 -100 -15 -33 -32 -35 -94 -5 -102 24 -6 36 -46 24
-81 -5 -15 -26 -35 -49 -46 -32 -17 -43 -31 -58 -73 -15 -39 -26 -54 -47 -61
-38 -14 -74 5 -78 41 -5 41 42 116 84 133 25 11 34 20 34 38 0 13 9 35 20 49
13 16 20 40 20 69 0 24 7 53 15 66 21 29 91 69 137 77 39 7 83 43 93 76 9 27
27 24 61 -12z m1367 -63 c13 -27 29 -43 57 -54 55 -23 50 -35 -10 -30 -75 7
-141 76 -109 114 19 23 42 12 62 -30z m1880 -3 c29 -14 85 -36 126 -47 69 -20
74 -23 97 -66 13 -25 24 -60 24 -79 0 -61 21 -110 62 -143 68 -54 90 -135 47
-174 -23 -21 -20 -23 -72 50 -13 19 -30 27 -67 32 -42 5 -50 10 -50 27 0 11
-10 31 -22 44 -29 31 -16 41 18 14 26 -21 56 -19 35 2 -16 16 -14 52 4 67 17
14 20 85 5 124 -11 30 -45 50 -65 39 -17 -10 -135 -169 -135 -183 0 -5 18 -19
39 -30 52 -26 72 -55 64 -92 -7 -37 7 -48 64 -48 49 0 122 -49 137 -93 16 -43
-2 -44 -47 0 -81 78 -131 79 -57 1 37 -40 52 -78 31 -78 -5 0 -27 21 -50 48
l-40 47 19 -53 c44 -117 10 -139 -62 -39 -56 78 -72 107 -59 107 5 0 27 -25
48 -55 36 -51 53 -67 53 -46 0 28 -36 100 -71 142 -37 45 -45 49 -85 49 -40 0
-45 -3 -68 -43 -14 -23 -31 -66 -39 -95 -11 -44 -19 -55 -48 -70 -38 -19 -47
-43 -28 -79 18 -34 44 -45 113 -52 l58 -6 3 -37 c1 -20 9 -48 18 -62 24 -36
22 -44 -18 -63 -48 -23 -78 -8 -96 48 -12 36 -24 49 -69 76 -30 18 -58 42 -62
54 -5 12 -7 71 -6 133 l3 111 38 -3 c34 -3 44 2 93 48 50 47 53 52 27 46 -15
-3 -53 -9 -83 -12 l-55 -6 -1 58 c0 33 -4 69 -8 81 -6 15 -2 27 14 43 20 20
29 22 84 16 33 -3 78 -8 99 -12 42 -7 47 3 15 33 -41 37 -66 45 -123 38 l-54
-7 -16 38 c-21 52 -16 76 20 92 17 8 43 31 58 53 35 48 65 51 140 12z m-2403
-126 c0 -15 -5 -36 -12 -46 -9 -15 -9 -28 1 -58 14 -44 12 -95 -6 -100 -6 -2
-14 9 -18 26 -3 16 -24 48 -46 71 -21 22 -39 44 -39 50 0 5 18 14 40 20 31 8
41 17 46 38 12 54 14 58 24 42 6 -8 10 -27 10 -43z m2128 -29 c3 -34 0 -39
-30 -51 -68 -29 -118 -113 -86 -145 19 -19 28 -14 28 12 0 27 42 66 71 66 22
0 23 -12 9 -72 -5 -24 -12 -55 -15 -70 -6 -33 -51 -61 -129 -82 -33 -8 -66
-22 -74 -30 -13 -13 -11 -17 23 -37 35 -21 36 -23 19 -36 -22 -16 -36 -16 -68
-2 -49 23 -56 87 -18 166 17 36 36 41 66 18 23 -17 63 -19 100 -5 36 13 34 40
-3 40 -48 0 -62 10 -87 64 -35 76 -33 83 39 115 34 16 75 43 92 60 38 41 59
37 63 -11z m-338 19 c0 -30 -32 -119 -50 -137 -14 -14 -28 -17 -58 -13 -47 6
-82 -10 -82 -38 0 -25 -25 -35 -45 -19 -27 22 -19 79 15 108 17 15 30 34 30
43 0 13 13 18 60 21 41 3 69 11 88 26 32 25 42 27 42 9z m-2806 -3 c22 -8 20
-34 -1 -34 -26 1 -58 26 -41 33 19 8 24 8 42 1z m2239 -71 c3 -21 9 -50 12
-65 10 -40 -16 -75 -66 -88 -29 -8 -46 -20 -61 -46 -29 -50 -38 -47 -52 18 -5
24 -1 31 34 54 23 15 48 41 56 58 35 73 55 106 63 106 5 0 11 -17 14 -37z
m1355 -1 c4 -28 -56 -92 -86 -92 -54 0 -54 11 -5 65 52 58 86 68 91 27z
m-2358 -73 c0 -21 5 -39 10 -39 6 0 10 18 10 41 0 33 3 40 18 37 19 -4 20 -19
5 -117 -11 -68 -35 -101 -75 -101 -11 0 -44 25 -74 57 -52 54 -55 59 -52 102
l3 46 44 6 c31 4 49 13 60 29 l15 22 18 -22 c10 -13 18 -39 18 -61z m1306 35
c-3 -9 -9 -48 -12 -87 -6 -59 -12 -78 -35 -105 -16 -18 -29 -40 -29 -48 0 -10
9 -5 26 15 14 17 30 28 36 25 18 -11 0 -95 -31 -143 -30 -48 -45 -110 -35
-148 10 -38 23 -25 21 21 -2 35 5 54 29 88 38 55 68 58 72 8 6 -64 -8 -119
-40 -155 -31 -36 -49 -107 -30 -119 6 -4 18 6 26 21 20 39 54 73 73 73 13 0
14 -8 8 -46 -6 -42 -38 -111 -58 -125 -4 -3 -3 -27 4 -54 l12 -48 20 39 c35
69 77 99 77 55 0 -20 -63 -147 -83 -168 -21 -22 -40 3 -45 58 -4 41 -12 62
-33 87 -16 18 -29 38 -29 45 -1 62 -25 162 -52 215 -31 59 -32 64 -19 105 7
23 15 65 18 92 2 28 13 67 24 88 11 21 24 63 29 95 9 67 34 132 51 132 6 0 8
-7 5 -16z m-1822 -29 c9 -14 24 -25 33 -25 10 0 36 -19 60 -42 23 -24 53 -53
68 -65 32 -29 32 -45 -4 -85 l-28 -32 -17 31 c-12 25 -30 37 -76 54 -33 12
-65 28 -71 35 -17 21 -23 91 -9 124 15 37 23 37 44 5z m1139 -15 c14 0 29 -5
32 -10 11 -18 -23 -59 -57 -68 -39 -10 -50 -32 -16 -32 14 0 38 14 58 35 59
61 85 35 29 -30 -24 -27 -39 -35 -64 -35 -19 0 -37 -4 -40 -10 -21 -34 -106
16 -132 77 -17 42 -6 66 39 82 18 7 40 16 48 21 9 5 27 1 46 -11 17 -10 43
-19 57 -19z m176 -32 c18 -50 22 -157 7 -187 -20 -39 -75 -71 -120 -71 -39 0
-48 15 -16 25 32 10 23 23 -20 27 -36 3 -39 2 -34 -19 5 -19 1 -23 -29 -28
-58 -11 -72 -4 -69 34 2 32 2 32 -20 17 -12 -9 -35 -16 -50 -16 -16 0 -28 -4
-28 -10 0 -5 9 -10 19 -10 11 0 23 -4 26 -10 4 -6 -16 -10 -53 -10 -48 0 -62
4 -80 23 -37 40 -43 74 -28 160 7 43 15 80 18 83 11 11 35 -10 73 -63 42 -58
113 -103 165 -103 70 0 99 19 156 101 31 43 60 79 65 79 5 0 13 -10 18 -22z
m801 -24 l31 -27 -23 -25 c-32 -34 -78 -52 -136 -52 -60 0 -94 -28 -74 -61 11
-16 9 -19 -8 -19 -12 0 -25 10 -30 23 -6 12 -16 30 -22 40 -11 15 -6 24 42 70
82 79 164 98 220 51z m-1826 -72 c20 -57 21 -102 2 -102 -7 0 -19 13 -26 30
-7 16 -23 36 -36 45 -28 18 -31 51 -8 83 15 22 17 22 34 7 11 -10 26 -38 34
-63z m-954 47 c0 -6 -17 -32 -38 -58 -22 -25 -47 -58 -57 -73 -11 -18 -26 -28
-42 -28 -24 0 -73 -40 -73 -60 0 -5 -4 -10 -10 -10 -17 0 -11 36 10 63 38 48
13 53 -31 6 -26 -28 -29 -29 -29 -10 0 34 65 97 113 110 23 6 62 24 87 41 47
31 70 38 70 19z m350 -54 c14 -15 35 -25 51 -25 24 0 30 -5 39 -40 8 -28 21
-47 45 -63 29 -19 35 -29 41 -73 9 -72 4 -86 -40 -114 -32 -21 -36 -26 -19
-28 37 -6 68 -49 68 -97 0 -58 -33 -95 -85 -95 -48 0 -53 7 -30 39 11 14 23
41 26 59 6 30 2 37 -42 79 -27 26 -57 58 -66 72 -22 32 -23 84 -3 101 22 18
103 -54 104 -92 1 -40 18 -34 32 11 12 39 11 40 -36 96 -27 31 -56 60 -65 65
-15 8 -70 105 -70 123 0 16 28 5 50 -18z m1913 4 c47 -25 67 -51 67 -91 0 -57
-37 -137 -66 -144 -13 -3 -39 -28 -59 -55 -25 -36 -42 -49 -59 -49 -32 0 -44
20 -17 27 27 7 26 19 -4 68 -38 62 -47 87 -36 98 6 6 19 -1 36 -19 21 -22 25
-24 20 -9 -11 35 -18 75 -12 75 4 0 13 -12 21 -27 l15 -28 1 43 c0 23 4 42 10
42 12 0 30 -66 30 -114 0 -30 3 -37 11 -29 12 12 8 113 -6 145 -6 15 -3 16 24
8 38 -11 40 2 4 28 -15 11 -23 24 -19 30 9 15 12 15 39 1z m-1622 -34 c18 -19
39 -35 48 -35 9 0 28 -13 43 -30 20 -23 35 -30 62 -30 65 0 91 -86 41 -136
-33 -33 -57 -28 -66 14 -10 48 -36 72 -78 73 -56 1 -74 12 -87 55 l-12 39 -1
-46 c-1 -61 30 -108 84 -127 113 -39 145 -66 145 -120 0 -31 -37 -62 -75 -62
-40 0 -42 -5 -15 -40 25 -32 25 -57 -1 -99 -18 -30 -24 -33 -57 -29 -20 3 -45
8 -54 12 -33 15 -19 -14 17 -36 39 -22 65 -63 65 -102 0 -32 -43 -66 -85 -66
-48 0 -48 -9 -5 -51 26 -25 40 -48 40 -64 0 -31 -38 -72 -74 -81 -33 -8 -33
-21 0 -55 19 -20 25 -34 20 -52 -9 -39 -43 -74 -78 -81 l-33 -7 23 -17 c70
-51 75 -58 68 -86 -7 -28 -48 -76 -64 -76 -6 0 -9 24 -8 53 l1 52 -54 27 c-30
14 -61 34 -68 44 -18 24 -16 69 2 88 21 20 40 11 55 -25 14 -32 53 -41 64 -13
14 36 4 61 -39 104 -48 47 -59 86 -30 110 11 9 22 7 54 -11 33 -18 43 -20 56
-9 25 21 18 57 -17 87 -17 16 -44 39 -60 53 l-28 25 20 33 c24 38 49 41 78 7
25 -28 60 -33 69 -9 4 12 -11 32 -50 69 -69 63 -74 91 -22 130 l34 27 30 -21
c35 -25 47 -26 55 -5 8 22 1 31 -44 54 -22 11 -44 28 -49 39 -18 33 -24 100
-12 115 11 13 19 10 57 -20 25 -19 56 -34 70 -34 15 0 24 -6 24 -15 0 -20 16
-19 24 1 12 30 6 42 -26 54 -123 45 -138 60 -138 129 0 26 -8 56 -20 76 -20
32 -20 32 0 58 11 14 20 30 20 35 0 25 21 62 35 62 8 0 29 -16 46 -35z m-576
-30 c38 -40 95 -135 95 -158 0 -14 -52 -37 -83 -37 -8 0 -75 -50 -104 -77 -29
-26 -111 -27 -85 -1 7 7 1 19 -19 35 -16 14 -29 34 -29 46 1 21 2 20 21 -5 11
-16 25 -28 30 -28 14 0 10 26 -6 40 -20 16 -20 70 -1 70 22 0 46 -40 46 -77 0
-18 5 -33 10 -33 6 0 8 10 4 24 -3 13 -1 27 4 30 6 3 13 -7 17 -24 7 -33 14
-37 33 -18 7 7 31 21 55 33 28 13 45 30 52 48 9 27 6 32 -33 65 -23 21 -42 45
-42 54 0 9 -4 20 -10 23 -5 3 -10 10 -10 16 0 19 24 8 55 -26z m1043 -11 c23
-19 46 -33 51 -30 4 3 14 19 21 36 9 23 18 30 34 28 17 -2 23 -13 30 -53 13
-77 17 -84 29 -47 13 41 40 39 47 -2 4 -26 6 -27 19 -13 21 26 33 20 29 -15
-2 -25 -11 -36 -42 -52 -29 -15 -42 -30 -48 -53 -9 -35 -37 -56 -62 -47 -9 3
-23 32 -32 63 -11 36 -29 70 -54 96 -95 103 -111 166 -22 89z m2244 -6 c-44
-75 -92 -167 -92 -177 0 -19 39 -12 50 9 16 30 40 25 40 -7 0 -21 3 -24 12
-15 19 19 28 14 28 -15 l1 -28 33 38 c29 35 34 37 46 22 12 -15 9 -21 -26 -50
-30 -26 -36 -36 -27 -46 9 -9 20 -5 48 20 20 17 40 29 46 26 19 -12 8 -33 -30
-60 -25 -16 -38 -32 -34 -41 7 -19 -21 -18 -40 1 -8 8 -25 30 -37 50 -17 27
-28 35 -51 35 -34 0 -79 20 -99 45 -11 14 -9 20 17 48 17 18 41 52 53 77 29
59 59 100 71 100 6 0 2 -15 -9 -32z m-3408 -32 c-21 -19 -43 -32 -47 -29 -14
8 45 63 67 63 15 0 12 -7 -20 -34z m2799 -14 c10 -52 0 -67 -61 -94 -39 -18
-43 -22 -40 -51 3 -28 0 -32 -24 -35 -19 -2 -30 3 -38 19 -16 30 -7 105 17
138 29 39 84 72 112 69 21 -2 27 -10 34 -46z m337 -12 c0 -84 -35 -131 -128
-170 -45 -20 -72 -43 -72 -64 0 -3 10 -14 22 -25 20 -19 20 -21 3 -27 -25 -10
-48 7 -64 50 l-14 37 77 79 c47 48 75 84 70 91 -8 14 63 78 89 79 14 0 17 -9
17 -50z m-2130 -47 c0 -10 5 -25 10 -33 7 -11 10 -5 10 23 0 20 4 37 9 37 29
0 29 -140 1 -193 -11 -20 -20 -52 -20 -70 0 -21 -8 -41 -20 -52 -10 -9 -24
-33 -30 -51 -16 -47 -30 -43 -30 9 0 23 -10 70 -22 105 -18 52 -20 65 -8 72
19 12 33 4 56 -33 l19 -32 3 44 c3 33 -2 49 -17 65 -14 15 -21 36 -21 63 0 22
-7 54 -16 72 -12 25 -13 35 -4 46 10 12 17 8 46 -20 19 -19 34 -42 34 -52z
m-1095 27 c-23 -45 -39 -50 -31 -10 6 34 23 53 38 44 4 -3 1 -18 -7 -34z m125
10 c-37 -32 -60 -38 -60 -17 0 14 55 46 80 46 9 0 1 -12 -20 -29z m84 -22 c8
-12 13 -25 10 -30 -8 -12 -44 21 -44 39 0 20 17 16 34 -9z m3343 -2 c15 -13
25 -27 21 -31 -7 -8 -68 34 -68 47 0 15 18 8 47 -16z m-3399 -28 c16 -16 15
-28 0 -28 -22 0 -41 17 -34 29 9 14 19 14 34 -1z m2078 -54 c10 -25 12 -40 5
-48 -6 -7 -8 -28 -5 -48 4 -19 1 -45 -5 -57 -15 -27 -81 -61 -120 -61 l-31 0
17 35 c15 32 15 37 0 76 -20 51 -15 60 16 31 32 -31 40 -27 33 13 -8 39 7 48
24 15 18 -34 30 -22 30 30 0 59 15 65 36 14z m-710 -16 c5 -18 7 -18 24 -3 17
15 18 14 24 -21 l7 -36 23 21 c30 29 39 26 34 -9 -3 -16 -2 -30 1 -30 3 0 12
14 19 30 8 17 20 30 28 30 16 0 14 -6 -18 -52 -11 -15 -18 -44 -18 -70 0 -69
-32 -87 -82 -45 -15 12 -33 40 -40 61 -7 21 -22 44 -33 50 -27 15 -35 27 -35
53 0 47 52 65 66 21z m1420 8 c18 -14 18 -17 4 -43 -9 -15 -38 -43 -65 -61
-28 -19 -50 -41 -50 -50 -1 -63 -39 -79 -63 -29 -18 38 -8 72 28 94 22 13 30
25 30 46 0 22 7 31 33 42 41 18 59 18 83 1z m-2643 -31 c-1 -5 -18 -13 -38
-16 -20 -3 -47 -15 -60 -25 -13 -10 -40 -32 -59 -48 -20 -16 -40 -26 -43 -22
-8 8 62 82 102 107 31 20 102 23 98 4z m1752 -35 c8 -16 15 -49 15 -74 0 -40
-3 -47 -30 -61 -29 -15 -95 -20 -124 -9 -20 8 -20 28 0 44 32 28 35 46 9 84
l-24 36 30 0 c19 0 38 -9 53 -25 l24 -26 10 31 c14 37 18 37 37 0z m-325 -7
l1 -28 18 23 c24 27 31 28 31 2 0 -27 8 -25 42 7 30 29 36 22 13 -17 -22 -39
-19 -69 10 -82 34 -15 32 -22 -14 -43 -66 -29 -129 3 -138 71 -5 41 10 94 27
94 5 0 10 -12 10 -27z m-430 -42 c18 -35 11 -61 -30 -104 -39 -41 -41 -41 -55
-23 -22 30 -19 49 20 100 40 51 49 55 65 27z m590 -13 c0 -16 -3 -19 -11 -11
-6 6 -8 16 -5 22 11 17 16 13 16 -11z m1307 -5 c4 -9 -6 -38 -22 -69 -25 -46
-27 -56 -17 -79 15 -32 39 -42 63 -27 33 21 39 14 39 -47 0 -49 4 -65 26 -90
38 -45 8 -39 -46 9 l-45 40 23 16 c31 23 29 48 -3 40 -16 -4 -40 0 -60 10 -46
21 -64 75 -46 135 20 66 72 103 88 62z m-712 -59 c18 -48 11 -72 -19 -61 -23
9 -42 82 -26 102 17 20 24 14 45 -41z m-1965 16 c37 -36 38 -50 5 -50 -45 0
-24 -41 48 -94 31 -22 37 -33 37 -62 0 -20 -9 -49 -21 -65 -17 -25 -27 -29
-67 -29 l-47 -1 30 -24 c58 -47 65 -55 71 -79 7 -30 -21 -73 -52 -82 -12 -3
-37 1 -57 10 -55 22 -56 1 -3 -46 33 -30 46 -49 46 -68 0 -29 -32 -64 -67 -75
-24 -7 -31 -39 -13 -50 19 -12 10 -44 -19 -64 -34 -25 -47 -16 -25 17 21 32 6
61 -47 96 -43 29 -54 53 -39 90 14 37 42 30 56 -14 16 -47 37 -59 63 -36 25
22 27 49 6 66 -8 6 -17 22 -21 33 -4 12 -22 39 -40 60 -27 29 -34 46 -34 77 0
64 24 64 81 0 32 -37 52 -51 63 -47 23 9 20 41 -8 74 -46 55 -76 106 -76 130
0 39 27 38 70 -1 44 -39 50 -42 68 -24 22 22 12 44 -44 93 l-56 48 4 53 c4 50
27 94 49 94 5 0 22 -13 39 -30z m2442 3 c31 -28 23 -58 -23 -78 -42 -19 -78
-68 -59 -80 6 -4 22 0 35 9 13 9 36 16 50 16 14 0 44 9 66 20 31 17 40 18 45
7 10 -26 -15 -65 -61 -97 -50 -34 -80 -87 -70 -121 10 -30 32 -22 52 18 12 26
27 39 48 45 16 4 37 17 46 29 21 28 49 19 49 -15 0 -17 -17 -41 -51 -75 -45
-45 -50 -53 -47 -88 3 -35 6 -38 36 -41 29 -3 33 0 38 28 8 39 58 90 88 90 47
0 63 -57 24 -88 -59 -46 -88 -81 -88 -106 0 -16 -6 -26 -15 -26 -8 0 -15 9
-15 20 0 16 -7 20 -32 20 -46 0 -52 6 -87 82 -19 39 -40 70 -51 73 -32 10 -60
54 -60 94 0 23 -11 52 -30 81 -39 59 -46 92 -24 129 17 29 77 70 103 71 8 0
23 -7 33 -17z m-1972 -47 c0 -22 10 -46 30 -71 31 -38 38 -69 20 -80 -21 -13
-43 -71 -41 -107 1 -22 -6 -49 -19 -70 -14 -24 -20 -50 -20 -94 0 -35 -6 -74
-15 -90 -8 -16 -15 -39 -15 -51 0 -18 -6 -23 -25 -23 -32 0 -43 25 -21 49 23
25 20 59 -10 98 -36 47 -29 67 25 73 25 3 46 10 48 15 2 6 -15 35 -37 65 -31
41 -40 63 -38 85 2 25 8 30 28 30 19 0 26 -6 28 -23 4 -28 30 -41 43 -21 5 8
2 20 -7 31 -23 24 -28 151 -9 189 20 39 35 37 35 -5z m450 -11 c18 -49 -13
-90 -90 -118 -59 -22 -60 -22 -60 12 0 34 17 54 70 81 21 10 40 26 43 35 9 23
26 18 37 -10z m908 13 c29 -29 -3 -98 -45 -98 -15 0 -18 9 -19 48 -1 26 4 50
10 54 17 11 41 9 54 -4z m-1190 -52 c4 -30 -12 -56 -34 -56 -9 0 -14 12 -14
33 0 57 42 77 48 23z m500 -24 c3 -18 -13 -39 -67 -91 -39 -37 -71 -75 -71
-84 0 -9 -4 -19 -10 -22 -17 -10 -50 15 -50 38 0 35 47 126 82 158 26 25 38
29 72 27 34 -3 42 -7 44 -26z m176 -12 c15 -14 -5 -88 -31 -115 -15 -14 -45
-34 -67 -44 -54 -24 -70 -44 -62 -81 4 -24 2 -30 -11 -30 -44 0 -73 81 -39
110 8 6 20 28 27 48 16 52 56 102 93 117 30 13 72 11 90 -5z m174 4 c12 -8 29
-29 38 -46 9 -17 35 -52 59 -77 53 -57 60 -80 41 -125 -12 -28 -21 -36 -40
-36 -27 0 -34 18 -15 37 25 25 5 57 -56 88 -54 27 -63 36 -92 94 -25 49 -30
67 -20 73 20 13 61 9 85 -8z m194 -20 c18 -20 49 -44 70 -55 35 -18 78 -62 78
-80 0 -15 -39 -49 -55 -49 -16 0 -19 6 -29 50 -4 19 -17 29 -55 43 -28 10 -61
31 -75 48 -62 73 1 114 66 43z m326 6 c32 -23 42 -37 42 -58 0 -55 -50 -71
-74 -24 -8 15 -23 36 -35 46 -12 11 -21 27 -21 36 0 40 33 40 88 0z m-79 -55
c17 -20 31 -41 31 -48 0 -23 -29 -55 -60 -65 -35 -13 -45 -3 -25 24 21 28 18
40 -16 72 -36 33 -32 52 11 52 20 0 37 -10 59 -35z m-1214 -23 c4 -11 -3 -25
-23 -42 -65 -56 -70 -58 -81 -47 -16 16 -14 30 14 68 37 50 75 59 90 21z
m-137 -34 c4 -33 -13 -68 -33 -68 -11 0 -15 12 -15 43 0 24 3 47 7 51 15 14
38 0 41 -26z m1720 -17 c3 -24 -5 -43 -30 -76 -18 -25 -36 -45 -40 -45 -12 0
-21 48 -14 74 8 32 55 88 70 83 6 -2 12 -18 14 -36z m-850 -27 c29 -26 62 -66
73 -89 15 -31 31 -47 60 -60 54 -25 61 -55 22 -103 -20 -24 -39 -37 -54 -37
-21 0 -24 5 -27 40 -4 51 -26 73 -111 114 -89 44 -120 100 -66 121 18 7 25 17
25 35 0 36 18 31 78 -21z m-562 11 c22 -34 14 -48 -53 -92 -44 -29 -59 -45
-61 -66 -3 -23 -6 -26 -23 -17 -23 13 -26 68 -5 109 20 38 82 91 106 91 11 0
27 -11 36 -25z m1165 5 c26 -14 51 -67 44 -91 -8 -25 -51 -53 -70 -45 -13 5
-13 9 -3 26 11 17 10 22 -10 35 -26 19 -29 60 -4 74 21 13 20 13 43 1z m-269
-87 c38 -38 74 -76 80 -86 16 -31 -8 -74 -49 -88 -44 -14 -60 -2 -43 32 13 24
4 35 -73 94 -24 18 -26 24 -20 68 4 32 10 47 20 47 8 0 46 -30 85 -67z m-478
21 c34 -33 2 -124 -43 -124 -20 0 -60 -34 -85 -72 -13 -20 -14 -31 -6 -53 14
-36 1 -49 -34 -35 -63 23 -70 131 -11 159 45 20 63 40 70 72 13 59 74 88 109
53z m651 -18 c23 -16 25 -72 5 -121 l-13 -30 -9 32 c-5 21 -19 38 -38 48 -33
17 -47 50 -30 70 16 19 60 19 85 1z m-927 -8 c20 -20 14 -38 -24 -81 -31 -33
-35 -45 -31 -73 9 -55 -44 -37 -63 21 -15 44 -8 74 26 114 27 33 70 41 92 19z
m1326 -11 c9 -13 7 -25 -8 -50 -60 -101 -64 -126 -24 -148 27 -15 48 7 69 69
18 53 37 60 56 21 11 -23 10 -35 -8 -85 -12 -33 -30 -66 -40 -75 -15 -14 -17
-26 -12 -69 6 -51 6 -52 -15 -41 -32 17 -45 49 -39 98 4 41 2 46 -29 70 -61
46 -67 139 -13 207 23 30 46 31 63 3z m-1794 -1 c0 -28 -12 -46 -31 -46 -22 0
-22 0 -9 34 10 27 40 36 40 12z m104 -52 c-1 -39 -45 -120 -58 -107 -15 16 -5
101 15 127 28 36 44 28 43 -20z m1551 -36 c-4 -40 -9 -75 -11 -77 -2 -2 -10 2
-19 9 -17 14 -21 91 -5 121 6 10 18 19 26 19 14 0 15 -10 9 -72z m591 27 c8
-34 -9 -78 -51 -130 -35 -43 -42 -74 -18 -82 6 -2 26 16 44 41 35 49 66 67 80
45 18 -28 8 -53 -36 -93 -32 -30 -45 -50 -45 -69 0 -15 -4 -27 -8 -27 -13 0
-32 23 -32 40 0 8 -16 28 -36 43 -43 35 -58 70 -43 100 23 44 113 157 126 157
7 0 15 -11 19 -25z m-1086 -61 c20 -33 52 -70 73 -83 30 -20 37 -30 37 -58 0
-35 -29 -73 -54 -73 -9 0 -18 16 -23 43 -7 34 -15 45 -43 58 -41 20 -48 36
-49 117 -1 78 9 78 59 -4z m384 20 c9 -8 16 -24 16 -35 0 -56 -52 -81 -70 -34
-5 14 -14 25 -20 25 -14 0 -12 47 3 53 25 11 56 7 71 -9z m-1554 -30 c8 -22
-6 -84 -19 -84 -17 0 -29 89 -14 104 11 10 25 2 33 -20z m867 6 c14 -11 31
-20 38 -20 14 0 75 -65 75 -79 0 -4 20 -18 45 -31 61 -32 70 -63 26 -102 -29
-26 -69 -36 -83 -22 -4 3 1 18 10 34 15 25 15 29 -1 54 -10 14 -28 28 -42 31
-14 3 -37 7 -51 10 -58 13 -98 97 -62 133 15 15 15 16 45 -8z m-547 -58 c0 -8
-18 -32 -40 -53 -30 -28 -40 -46 -40 -69 0 -34 -19 -40 -44 -14 -32 32 -9 125
34 139 11 4 28 18 37 32 l17 25 18 -22 c10 -12 18 -29 18 -38z m1101 -1 c30
-30 37 -67 19 -100 -15 -29 -38 -33 -33 -8 2 16 -7 29 -37 49 -28 20 -40 35
-40 52 0 44 50 48 91 7z m-631 -21 c0 -50 39 -96 100 -119 35 -13 46 -23 55
-51 9 -27 23 -41 61 -61 60 -31 70 -64 30 -104 -33 -33 -50 -32 -43 2 7 36
-52 97 -110 112 -51 14 -67 32 -117 139 -20 42 -36 41 -36 -3 0 -27 -7 -39
-31 -57 -36 -27 -59 -66 -59 -102 0 -30 -13 -40 -40 -31 -28 9 -35 48 -20 112
10 40 21 60 39 71 37 24 42 33 36 69 -7 37 2 44 55 47 22 1 42 5 46 9 19 19
34 5 34 -33z m-295 -10 c18 -35 19 -81 3 -102 -7 -8 -28 -25 -47 -38 -29 -20
-33 -27 -28 -57 8 -47 -18 -56 -50 -19 -23 27 -32 89 -14 100 4 3 11 19 14 35
4 17 16 35 29 42 13 6 33 24 46 40 13 16 25 29 27 29 3 0 11 -13 20 -30z
m1525 -37 c0 -44 -32 -105 -66 -128 -26 -16 -26 -20 -21 -81 4 -35 4 -64 2
-64 -3 0 -10 20 -16 45 -6 24 -17 50 -25 56 -8 6 -14 22 -14 35 0 25 63 157
88 187 14 16 16 16 34 1 11 -10 18 -31 18 -51z m-422 45 c9 -9 18 -9 37 0 66
30 83 3 40 -60 -27 -39 -30 -48 -17 -48 4 0 16 14 25 30 23 39 55 40 62 3 3
-16 10 -42 15 -59 22 -69 9 -112 -49 -160 -31 -25 -33 -31 -27 -70 4 -34 3
-42 -8 -38 -20 8 -36 50 -36 94 0 25 12 62 35 104 35 66 44 106 25 106 -5 0
-10 -9 -10 -21 0 -28 -18 -59 -35 -59 -23 0 -45 42 -45 88 0 33 -6 48 -25 66
-13 13 -22 26 -18 29 9 10 17 9 31 -5z m-1474 -14 c12 -30 6 -48 -36 -102
l-42 -54 -9 27 c-10 28 3 66 39 123 17 26 39 29 48 6z m-345 -34 c6 -17 19
-42 30 -56 16 -21 18 -30 9 -55 -12 -36 -35 -49 -83 -49 -43 0 -75 15 -75 35
0 19 34 19 50 0 17 -20 33 -19 54 4 20 22 15 50 -14 76 -20 18 -27 55 -13 68
14 15 32 5 42 -23z m1369 -13 c23 -23 42 -51 42 -61 0 -21 36 -56 56 -56 8 0
21 -11 30 -25 22 -33 10 -78 -28 -110 -35 -30 -64 -34 -53 -7 20 47 17 53 -34
103 -50 48 -61 71 -41 84 7 4 3 19 -10 39 -20 33 -27 76 -12 76 4 0 27 -19 50
-43z m392 13 c26 -14 54 -111 45 -158 -4 -20 -13 -45 -21 -56 -13 -19 -14 -14
-14 45 0 52 -4 68 -20 82 -11 9 -20 23 -20 31 0 7 -7 19 -15 26 -12 10 -13 16
-4 26 14 17 24 17 49 4z m-1662 -29 c5 -34 -11 -45 -33 -21 -15 16 -16 22 -5
35 17 21 34 14 38 -14z m112 -22 c0 -34 -19 -38 -45 -9 -17 19 -17 21 0 40 23
25 45 10 45 -31z m1385 -38 c3 -10 3 -26 -1 -35 -3 -9 -2 -16 3 -16 18 0 53
-41 53 -63 0 -13 -6 -32 -14 -43 -14 -18 -15 -18 -26 11 -6 16 -29 46 -51 66
l-41 38 18 30 c20 35 50 41 59 12z m-2114 -33 c13 -18 36 -46 51 -61 50 -50
46 -110 -8 -123 -30 -8 -42 2 -26 18 20 20 14 52 -17 94 -30 41 -50 104 -32
104 5 0 20 -15 32 -32z m2850 -7 c5 -25 1 -40 -22 -74 -20 -29 -29 -55 -29
-84 0 -56 -13 -61 -35 -13 -23 51 -16 97 26 161 35 55 50 58 60 10z m-1816
-20 c8 -27 -3 -66 -26 -87 -28 -25 -25 -54 6 -54 29 0 41 -31 31 -84 -6 -33
-46 -86 -65 -86 -6 0 -13 16 -17 35 -5 30 -2 38 25 61 36 30 33 40 -10 49
l-32 7 6 57 c2 32 12 72 21 89 19 36 51 43 61 13z m-136 -4 c8 -11 2 -26 -27
-68 -48 -69 -72 -76 -72 -21 0 30 7 47 29 71 31 33 52 39 70 18z m-271 -32 c7
-14 12 -32 12 -40 0 -19 -36 -39 -45 -25 -13 21 -25 9 -25 -24 0 -23 -9 -45
-25 -63 l-24 -28 -1 42 c0 39 -3 44 -40 63 -66 33 -43 72 29 49 33 -11 36 -10
59 20 30 38 45 39 60 6z m1615 10 c25 -24 32 -75 13 -94 -15 -14 -18 -14 -26
-1 -5 8 -10 28 -10 43 0 16 -5 37 -10 48 -13 24 11 27 33 4z m-1515 -31 c4
-36 -21 -74 -38 -58 -16 16 -16 74 1 85 22 14 34 5 37 -27z m1158 -26 c14 -27
43 -69 65 -93 42 -45 45 -69 14 -95 -13 -11 -15 -8 -15 18 0 32 -27 60 -89 94
-29 16 -31 21 -31 71 0 84 15 86 56 5z m-639 21 c23 -45 16 -86 -19 -112 -45
-33 -94 -58 -102 -50 -15 16 -4 65 22 95 16 18 37 48 48 66 21 36 33 37 51 1z
m1713 12 c19 -37 11 -64 -35 -108 -50 -48 -54 -62 -25 -88 28 -25 25 -37 -7
-33 -65 7 -66 101 -1 175 21 25 37 52 34 59 -8 22 22 17 34 -5z m-2762 -21 c2
-14 26 -48 53 -77 39 -41 49 -59 49 -86 0 -39 -14 -54 -58 -63 -30 -6 -32 -9
-32 -50 0 -45 -17 -64 -56 -64 -15 0 -14 3 5 24 31 33 22 68 -24 94 -32 19
-56 64 -42 79 4 3 20 -6 37 -20 39 -33 61 -40 94 -28 38 15 33 44 -14 81 -41
33 -69 93 -56 125 9 24 40 14 44 -15z m1417 -20 c77 -52 93 -76 75 -110 -15
-27 -30 -25 -78 10 -44 32 -67 64 -56 81 3 6 -1 18 -8 27 -50 57 -26 55 67 -8z
m-115 19 c18 -33 4 -63 -52 -114 -29 -26 -55 -57 -58 -69 -8 -31 -41 -27 -53
7 -13 41 8 86 50 104 19 7 36 21 39 31 15 48 25 62 43 62 11 0 25 -9 31 -21z
m1090 -29 c12 -28 10 -33 -29 -83 -45 -59 -50 -81 -24 -109 19 -22 12 -32 -16
-23 -28 8 -37 29 -45 96 -6 57 -6 57 40 108 25 28 49 49 54 46 4 -2 13 -18 20
-35z m-1960 -82 c27 -43 24 -103 -5 -103 -16 0 -20 7 -21 35 0 19 -6 45 -13
58 -12 23 -8 42 10 42 5 0 18 -15 29 -32z m1501 4 c28 -25 30 -31 20 -50 -15
-28 -51 -30 -51 -2 0 15 -7 20 -25 20 -27 0 -41 20 -31 45 9 24 53 17 87 -13z
m-1217 2 c26 -68 -33 -148 -74 -99 -15 18 -6 46 27 85 28 34 38 37 47 14z
m1465 -31 c9 -30 7 -42 -8 -67 -10 -17 -22 -47 -26 -66 -11 -60 -16 -70 -30
-70 -8 0 -22 -11 -31 -25 -20 -30 -30 -31 -44 -5 -13 24 4 62 45 100 23 22 26
30 20 68 -5 34 -2 48 15 72 28 40 47 38 59 -7z m-140 1 c25 -32 27 -57 5 -78
-20 -20 -34 -12 -27 14 3 11 -2 31 -11 45 -9 13 -16 29 -16 35 0 19 29 10 49
-16z m-1788 -33 c43 -43 49 -53 49 -91 0 -38 -5 -48 -41 -81 -27 -25 -39 -44
-36 -54 7 -16 -28 -55 -50 -55 -9 0 -11 11 -7 43 5 35 2 45 -15 61 -21 19 -28
60 -12 70 5 3 23 -8 40 -24 26 -25 35 -29 51 -20 11 6 20 15 20 20 0 4 3 15 6
23 3 9 -7 28 -23 46 -50 54 -74 91 -68 101 13 20 39 9 86 -39z m2227 21 c2
-12 -11 -47 -28 -78 -29 -50 -32 -60 -25 -110 5 -46 4 -53 -9 -48 -23 9 -45
48 -52 94 -6 34 -3 47 17 73 13 18 33 40 46 50 13 10 23 25 23 34 0 22 25 10
28 -15z m-1420 -39 c-3 -44 -6 -50 -40 -68 -45 -24 -60 -55 -53 -104 l6 -36
-25 28 c-38 41 -34 79 9 115 24 19 36 38 38 58 1 20 10 33 27 41 39 19 41 16
38 -34z m358 -4 c79 -55 92 -77 74 -123 l-10 -28 -33 19 c-26 16 -32 25 -30
52 1 25 -6 39 -30 61 -26 24 -33 26 -38 13 -3 -9 -21 -21 -40 -27 -42 -13 -69
-62 -69 -123 0 -24 -4 -43 -9 -43 -11 0 -71 67 -71 80 0 5 12 17 28 27 36 23
42 32 42 66 0 21 6 30 28 37 15 5 38 16 52 24 14 8 27 15 28 15 2 1 37 -22 78
-50z m-827 -2 c16 -43 12 -52 -22 -43 -26 6 -54 57 -42 76 14 23 49 5 64 -33z
m1079 27 c16 -11 22 -25 22 -51 0 -20 7 -44 16 -54 27 -30 43 -90 31 -116 -14
-30 -25 -26 -64 26 -29 38 -33 50 -33 106 0 43 -5 66 -15 75 -36 29 3 42 43
14z m-97 -14 c22 -13 28 -80 6 -80 -11 0 -47 64 -47 83 0 10 19 8 41 -3z m679
-69 c0 -22 -6 -44 -15 -51 -18 -15 -20 -91 -3 -108 6 -6 9 -15 5 -18 -3 -4
-20 8 -38 25 -25 25 -30 37 -25 59 10 40 56 132 67 132 5 0 9 -17 9 -39z m346
-5 c-4 -20 -24 -56 -46 -82 -33 -37 -38 -49 -30 -64 6 -10 15 -22 20 -25 17
-10 11 -25 -9 -25 -32 0 -51 28 -51 72 0 36 6 47 44 84 24 23 49 52 56 64 16
30 24 18 16 -24z m-710 9 c20 -31 14 -97 -12 -126 -25 -27 -34 -23 -22 9 9 23
8 36 -5 62 -10 18 -17 41 -17 50 0 38 33 41 56 5z m-1491 -3 c6 -4 18 -17 28
-29 18 -20 18 -23 3 -45 -9 -12 -16 -30 -16 -40 0 -18 -47 -48 -75 -48 -19 0
-19 3 5 42 15 24 18 42 13 71 -4 28 -2 42 8 48 17 11 21 11 34 1z m320 -33 c9
-27 -14 -121 -29 -116 -20 7 -32 56 -18 77 7 11 12 29 12 40 0 26 27 26 35 -1z
m145 7 c0 -8 -10 -31 -21 -51 -16 -26 -20 -46 -16 -70 6 -40 -15 -49 -33 -16
-20 38 -12 80 23 116 35 37 47 42 47 21z m1140 -44 c-1 -31 -34 -77 -50 -67
-17 11 -11 64 10 85 25 25 40 18 40 -18z m-905 -2 c9 -29 -3 -59 -39 -90 -26
-24 -31 -35 -31 -74 0 -41 -2 -46 -23 -46 -17 0 -27 9 -38 35 -13 31 -13 39 0
63 8 16 22 34 30 41 9 8 16 22 16 31 0 19 46 59 67 60 6 0 15 -9 18 -20z
m-574 -11 c6 -12 9 -33 6 -47 -4 -19 3 -37 25 -64 30 -38 30 -38 33 -190 3
-166 15 -266 47 -398 17 -71 18 -93 9 -135 -6 -27 -10 -69 -9 -92 2 -34 -4
-50 -30 -82 -38 -47 -47 -69 -57 -136 -4 -27 -14 -63 -23 -80 l-17 -30 -5 55
c-6 60 -13 54 -29 -28 -6 -29 -18 -66 -26 -82 -8 -16 -15 -54 -15 -84 0 -44
-5 -60 -25 -84 -14 -17 -25 -43 -25 -59 0 -28 -17 -57 -86 -140 -22 -28 -24
-33 -9 -33 9 0 30 9 46 21 25 17 29 18 29 4 0 -27 -44 -61 -88 -68 -23 -4 -63
-21 -89 -37 -26 -17 -55 -30 -64 -30 -10 0 -21 -4 -24 -10 -15 -24 -24 -7 -18
35 6 48 -10 64 -21 20 -8 -32 -34 -32 -42 0 -8 34 20 65 58 65 33 0 34 4 8 37
-23 30 -25 43 -7 66 11 16 18 16 64 6 94 -22 153 24 172 134 14 79 14 100 1
92 -5 -3 -10 -20 -10 -36 0 -33 -20 -79 -44 -98 -26 -21 -32 15 -13 70 19 51
21 87 8 108 -14 21 -22 -3 -32 -87 -10 -87 -28 -117 -55 -90 -15 15 -15 20 0
60 21 58 44 160 39 176 -9 26 -22 10 -28 -35 -11 -82 -16 -103 -27 -103 -13 0
-3 106 18 182 7 29 14 72 14 96 0 24 6 55 14 70 7 15 28 76 45 136 36 126 40
210 17 377 -14 96 -20 199 -17 276 1 29 5 33 41 43 30 8 44 19 58 46 10 19 40
52 67 72 39 29 51 46 55 73 11 62 38 79 61 38z m93 -1 c6 -25 9 -58 7 -72 -2
-16 -41 26 -41 45 0 46 26 66 34 27z m1206 -45 c0 -7 -9 -13 -20 -13 -14 0
-20 7 -20 23 0 13 3 27 7 31 9 8 33 -22 33 -41z m-490 22 c0 -28 -37 -89 -74
-122 -23 -20 -36 -40 -36 -56 0 -13 -7 -31 -16 -38 -14 -11 -18 -10 -30 6 -17
23 -18 86 -1 108 6 9 33 25 59 36 31 13 52 30 63 50 17 33 35 41 35 16z m233
-2 c8 -10 18 -30 22 -45 6 -22 1 -32 -20 -53 -48 -44 -60 -35 -61 45 0 65 1
70 21 70 12 0 29 -8 38 -17z m-170 -14 c33 -17 77 -61 77 -76 0 -8 -7 -16 -16
-20 -14 -5 -13 -9 6 -23 27 -20 21 -50 -8 -50 -26 0 -70 45 -76 78 -20 110
-20 110 17 91z m954 -15 c4 -10 -6 -26 -26 -44 -36 -33 -40 -64 -10 -81 17 -8
33 -7 75 6 75 24 123 2 78 -35 -31 -26 -36 -49 -17 -80 20 -34 14 -45 -22 -36
-33 9 -54 50 -37 77 20 32 14 39 -35 39 -59 0 -83 20 -83 71 0 26 8 47 26 68
29 35 42 38 51 15z m-689 -22 c2 -12 -1 -22 -6 -22 -15 0 -34 28 -27 40 10 17
30 6 33 -18z m492 3 c10 -19 11 -28 2 -37 -23 -23 -61 14 -48 47 8 23 31 18
46 -10z m-2056 -17 c38 -54 7 -149 -43 -133 -27 8 -27 31 -1 47 23 15 25 30 8
57 -12 19 -5 51 11 51 5 0 17 -10 25 -22z m197 -12 c16 -35 -3 -66 -41 -66
-32 0 -38 11 -16 29 8 7 17 23 20 36 8 32 23 32 37 1z m1759 -31 c5 -14 14
-25 20 -25 6 0 53 -42 104 -94 68 -67 97 -104 106 -132 16 -55 35 -360 24
-387 -17 -40 -11 -512 8 -613 25 -140 68 -204 138 -204 23 0 50 -51 50 -94 0
-17 12 -34 36 -53 20 -15 46 -35 57 -44 18 -14 20 -21 12 -45 -13 -37 -28 -37
-35 1 -4 24 -11 31 -32 33 -22 3 -29 -2 -34 -22 -3 -14 -10 -26 -15 -26 -16 0
-21 27 -10 48 12 23 -10 112 -33 132 -13 10 -15 2 -13 -52 2 -102 -18 -128
-74 -98 -25 14 -111 144 -132 201 -10 26 -27 55 -37 64 -16 14 -20 31 -20 75
0 39 -5 62 -15 70 -9 8 -15 30 -15 60 0 28 -6 52 -14 59 -7 6 -16 25 -20 42
-3 17 -17 44 -31 60 -22 27 -45 85 -45 115 0 7 -12 37 -26 68 -22 49 -25 65
-20 119 4 34 8 101 10 149 2 47 8 92 12 100 5 7 12 72 15 143 4 72 11 150 17
174 8 34 7 50 -3 65 -7 12 -16 47 -20 79 -5 48 -4 57 10 57 8 0 20 -11 25 -25z
m-193 -17 c7 -6 13 -21 13 -33 0 -12 7 -55 16 -94 16 -69 16 -77 -6 -194 -28
-154 -42 -210 -80 -321 -18 -54 -30 -110 -30 -140 0 -58 29 -188 60 -267 24
-64 38 -203 21 -213 -6 -4 -11 -32 -11 -61 0 -52 2 -56 38 -79 61 -38 67 -49
52 -100 -14 -50 -5 -80 16 -52 28 39 74 -5 74 -71 0 -18 -4 -33 -10 -33 -5 0
-10 18 -10 39 0 26 -5 41 -16 45 -30 12 -35 6 -32 -36 2 -33 -1 -43 -12 -43
-9 0 -16 11 -18 28 -4 30 -28 37 -36 10 -3 -10 -4 5 -1 34 3 41 0 57 -17 78
-11 15 -24 41 -27 57 -5 25 -14 34 -46 45 -44 15 -55 27 -48 54 3 11 0 26 -7
34 -8 9 -10 29 -7 50 4 27 -2 51 -25 102 -29 61 -32 79 -39 207 -4 78 -8 155
-9 171 l-2 30 -9 -35 c-35 -144 -80 -427 -74 -466 5 -33 1 -55 -15 -91 -12
-27 -22 -69 -22 -95 -1 -50 -11 -60 -27 -30 -13 24 4 96 31 135 21 29 21 30 3
82 l-17 53 46 263 c44 242 48 281 53 474 4 173 2 222 -11 278 -9 38 -14 72
-11 77 2 4 22 10 42 13 29 5 52 20 93 62 46 47 59 55 80 50 14 -4 31 -11 37
-17z m362 -2 c15 -18 -2 -56 -25 -56 -16 0 -34 38 -27 58 7 16 38 15 52 -2z
m-544 -16 c4 -6 4 -18 1 -27 -5 -12 -9 -13 -21 -3 -8 7 -15 19 -15 26 0 16 26
19 35 4z m-991 -108 c-3 -162 -16 -344 -25 -335 -13 13 -37 134 -45 229 -5 70
-3 90 15 140 28 74 31 78 45 64 7 -7 11 -45 10 -98z m167 81 c23 -4 53 -26 91
-63 54 -55 56 -59 63 -124 6 -52 3 -83 -10 -133 -15 -55 -17 -90 -12 -217 6
-159 19 -221 64 -309 15 -30 23 -61 21 -80 l-4 -32 -11 27 c-17 39 -38 48 -29
12 40 -162 51 -273 28 -296 -17 -17 -28 0 -42 67 -17 82 -32 91 -25 15 6 -60
4 -67 -18 -88 -29 -28 -32 -23 -42 71 -11 98 -25 92 -25 -10 0 -87 -1 -89 -45
-157 -25 -38 -45 -81 -45 -95 -1 -14 -9 -64 -19 -111 -16 -78 -20 -85 -42 -85
-22 0 -24 4 -24 49 0 52 -18 75 -49 63 -18 -7 -21 -48 -5 -79 14 -26 -1 -42
-30 -33 -43 13 -21 130 27 142 20 5 31 -1 53 -25 18 -20 26 -38 22 -49 -4 -10
-2 -14 4 -10 6 4 13 24 16 44 3 21 7 47 9 58 2 16 -3 21 -29 23 -30 3 -33 6
-33 35 0 45 13 61 42 54 36 -9 57 11 73 72 19 74 30 171 16 151 -6 -8 -11 -29
-11 -47 0 -62 -44 -133 -82 -133 -19 0 -25 31 -12 64 8 20 34 21 34 1 0 -8 3
-15 8 -15 4 0 8 138 10 308 2 244 -1 318 -12 361 -8 30 -22 111 -31 180 -9 69
-22 162 -30 207 -28 159 11 212 136 187z m503 -35 c-1 -41 -27 -88 -48 -88
-18 0 -30 50 -17 63 6 6 11 18 11 27 0 21 21 41 40 37 10 -2 15 -14 14 -39z
m170 17 c8 -21 -3 -44 -27 -56 -17 -10 -19 -9 -14 6 4 9 7 28 7 41 0 27 24 33
34 9z m447 -71 c14 -63 10 -187 -11 -369 -24 -204 -31 -236 -70 -322 -23 -51
-33 -64 -42 -55 -9 9 -9 40 1 135 8 67 17 149 20 182 3 33 10 66 15 73 10 16
11 30 24 217 14 192 38 245 63 139z m-1798 13 c37 -77 39 -93 38 -266 -1 -118
-6 -184 -15 -205 l-13 -31 -11 25 c-19 43 -42 241 -42 362 0 153 11 183 43
115z m980 -13 l38 -35 -22 -66 c-19 -59 -20 -70 -9 -124 23 -107 -5 -364 -48
-447 -37 -71 -52 -47 -52 85 0 45 -9 168 -20 273 -14 134 -18 202 -11 228 5
20 12 49 15 64 7 32 31 58 54 58 9 0 34 -16 55 -36z m1170 10 c9 -10 -4 -34
-18 -34 -17 0 -28 17 -20 30 7 11 28 13 38 4z m-879 -32 c8 -13 -23 -52 -40
-52 -17 0 -17 1 -4 34 9 25 33 35 44 18z m126 -82 c3 -41 11 -86 19 -99 30
-53 -23 -460 -56 -428 -16 17 -55 232 -68 377 -8 96 -15 178 -15 182 0 16 65
48 90 46 24 -3 25 -7 30 -78z m840 -32 c17 -45 24 -296 12 -383 -6 -38 -21
-130 -33 -202 l-24 -132 33 -98 c18 -54 32 -107 32 -118 0 -11 14 -49 30 -84
46 -97 31 -106 -29 -18 -18 27 -35 46 -38 43 -10 -10 20 -82 49 -119 44 -56
28 -56 -29 1 -43 43 -52 60 -72 133 -32 113 -37 257 -16 424 29 233 40 458 25
520 -10 44 -11 57 0 69 17 22 45 5 60 -36z m-1042 -24 c13 -9 30 -13 39 -10 9
4 20 1 25 -6 4 -7 8 -102 8 -212 0 -171 3 -215 25 -320 13 -66 31 -140 39
-164 14 -38 14 -57 2 -160 -10 -81 -22 -135 -40 -176 -33 -73 -33 -104 0 -166
20 -38 24 -57 19 -82 -12 -56 -17 -58 -151 -58 l-124 0 0 31 c0 17 -5 40 -12
52 -12 22 -14 41 -24 262 -13 253 -9 345 14 411 26 76 26 73 17 319 -4 110 -3
218 2 240 8 38 11 40 45 40 20 0 40 3 44 8 12 12 48 8 72 -9z m-663 -620 c0
-142 3 -174 18 -201 25 -47 21 -91 -13 -143 -16 -25 -30 -50 -30 -56 0 -15
-26 -25 -46 -17 -8 3 -26 0 -40 -7 -13 -8 -27 -11 -30 -7 -3 3 9 36 26 73 21
43 36 93 41 138 5 39 17 99 28 133 14 45 17 79 14 126 -7 77 3 140 20 134 9
-3 12 -51 12 -173z m1271 -49 c17 -41 33 -193 34 -312 0 -77 -1 -83 -21 -83
-23 0 -61 18 -71 33 -13 21 -20 234 -10 301 16 100 42 123 68 61z m-315 -118
c4 -34 12 -93 18 -132 8 -50 9 -90 1 -145 -17 -120 12 -181 44 -95 18 46 32
55 54 33 18 -18 15 -42 -8 -71 l-21 -26 48 -3 c42 -3 49 -6 57 -30 12 -35 -3
-103 -24 -103 -10 0 -14 8 -12 25 8 73 8 75 -19 78 -14 2 -31 -4 -39 -13 -11
-13 -10 -18 4 -33 9 -10 16 -29 16 -41 0 -17 -5 -22 -22 -19 -18 2 -25 13 -33
53 -6 29 -20 61 -34 75 l-24 25 8 -25 c15 -54 17 -81 5 -95 -18 -21 -30 -9
-30 30 0 21 -6 35 -16 39 -27 11 -36 -4 -29 -49 4 -28 2 -46 -6 -50 -30 -19
-39 66 -13 121 15 32 15 36 -1 54 -11 12 -14 26 -10 39 9 29 29 26 44 -5 21
-48 25 -15 6 61 -16 64 -17 78 -5 99 11 22 11 32 0 65 -13 42 -10 104 10 174
15 50 23 40 31 -36z m-1105 -24 c-8 -37 -19 -86 -23 -108 -7 -37 -8 -34 -11
33 -2 60 1 79 19 112 13 22 24 38 27 36 2 -3 -3 -35 -12 -73z m574 -153 c6
-69 14 -145 17 -170 4 -32 2 -42 -5 -35 -29 27 -54 310 -34 396 7 32 7 31 9
-16 2 -27 7 -106 13 -175z m969 55 c28 -104 27 -114 -3 -86 -18 17 -25 36 -29
89 -4 37 -9 81 -12 97 l-6 30 15 -26 c8 -14 24 -61 35 -104z m-1087 -116 c4
-19 5 -49 2 -66 -5 -29 -3 -33 15 -33 24 0 25 -1 9 -35 -16 -35 -3 -43 27 -15
19 18 28 21 36 13 17 -17 3 -43 -22 -43 -37 0 -59 -28 -59 -76 0 -47 -8 -74
-21 -74 -5 0 -6 14 -2 31 3 17 1 47 -5 67 -6 20 -15 56 -22 80 -12 47 -24 53
-41 20 -6 -13 -20 -31 -31 -41 -21 -21 -16 -37 12 -37 21 0 50 -35 50 -61 0
-9 -9 -27 -20 -40 l-20 -24 2 43 c2 50 -11 67 -46 58 -24 -6 -26 -10 -23 -54
1 -36 -1 -47 -13 -47 -25 0 -35 47 -17 86 8 19 20 65 25 102 13 85 25 101 69
92 30 -5 33 -4 33 20 0 31 28 77 44 72 6 -2 14 -19 18 -38z m-492 -33 c0 -38
-16 -57 -26 -32 -8 21 3 66 16 66 6 0 10 -15 10 -34z m1620 25 c0 -5 -19 -16
-41 -25 -49 -20 -74 -8 -38 18 25 17 79 22 79 7z m-222 -31 c22 -29 22 -30 3
-30 -19 0 -41 26 -41 49 0 20 16 12 38 -19z m-2008 -82 c-5 -32 -17 -70 -27
-85 -10 -15 -23 -37 -29 -47 -6 -11 -18 -24 -26 -30 -23 -14 -68 8 -68 34 0
16 7 20 35 20 39 0 53 20 74 105 24 95 57 97 41 3z m657 26 c-4 -39 -12 -52
-61 -98 -31 -29 -59 -49 -62 -45 -8 14 -9 107 -1 115 4 4 19 1 33 -7 29 -15
31 -13 66 50 24 43 31 39 25 -15z m106 13 c-1 -14 -18 -49 -37 -77 -28 -40
-36 -62 -36 -95 0 -45 -7 -75 -19 -75 -3 0 -6 21 -6 47 0 47 -1 48 -30 48 -29
0 -30 -2 -35 -50 -6 -49 -6 -50 -18 -22 -7 16 -12 34 -12 40 0 26 32 57 71 69
23 6 43 17 45 22 1 6 8 30 14 53 17 68 67 100 63 40z m1473 -3 c15 -37 12 -84
-6 -84 -5 0 -9 17 -7 38 1 20 -2 47 -6 60 -13 36 3 25 19 -14z m-42 0 c9 -24
7 -62 -4 -69 -6 -3 -10 4 -10 17 0 13 -3 33 -6 46 -7 25 11 31 20 6z m-2054
-9 c10 -13 10 -19 -5 -35 -13 -14 -16 -29 -12 -54 5 -31 1 -39 -25 -61 -16
-14 -34 -23 -38 -20 -5 3 -14 30 -21 60 -12 52 -11 55 15 90 29 38 64 46 86
20z m1988 -16 c2 -13 10 -45 19 -72 13 -36 21 -46 34 -42 28 9 31 -11 4 -23
-28 -13 -33 -43 -10 -62 22 -18 18 -32 -7 -28 -19 2 -24 12 -31 53 -4 28 -19
72 -33 99 -26 55 -31 92 -11 99 21 9 32 1 35 -24z m681 12 c7 -5 16 -35 20
-66 l6 -58 59 -33 c33 -18 63 -40 68 -48 12 -21 6 -83 -7 -76 -5 3 -8 11 -7
19 8 32 -8 61 -33 61 -22 0 -25 -5 -25 -32 0 -18 4 -40 10 -48 11 -17 -6 -41
-24 -34 -9 3 -12 20 -8 54 4 45 2 51 -32 84 -20 20 -36 43 -36 51 0 17 -38 93
-58 118 -14 16 -12 17 19 17 19 0 40 -4 48 -9z m-91 -37 c17 -7 32 -17 33 -21
0 -4 2 -33 4 -63 1 -30 6 -81 10 -112 6 -50 5 -58 -9 -58 -13 0 -15 8 -10 45
6 43 5 46 -40 90 -53 51 -92 125 -73 137 13 8 31 4 85 -18z m-1504 -80 c9 -8
16 -27 16 -42 0 -15 3 -37 6 -49 5 -18 2 -23 -11 -23 -15 0 -17 6 -11 40 5 33
3 41 -15 50 -42 23 -66 -32 -33 -78 18 -25 13 -38 -10 -29 -20 8 -32 92 -17
123 12 28 51 32 75 8z m1085 -47 c25 -51 23 -77 -9 -77 -17 0 -20 6 -19 38 1
20 -4 50 -10 65 -19 48 11 28 38 -26z m-1649 -6 c0 -22 -16 -36 -24 -22 -8 12
3 41 15 41 5 0 9 -9 9 -19z m142 7 c7 -18 -2 -39 -13 -32 -12 7 -12 44 0 44 5
0 11 -6 13 -12z m198 -24 c0 -13 -4 -24 -10 -24 -5 0 -10 14 -10 31 0 17 4 28
10 24 6 -3 10 -17 10 -31z m727 -1 c-3 -10 -5 -4 -5 12 0 17 2 24 5 18 2 -7 2
-21 0 -30z m183 17 c0 -11 -4 -20 -10 -20 -5 0 -10 2 -10 4 0 2 -3 11 -6 20
-4 11 -1 16 10 16 9 0 16 -8 16 -20z m-1866 -11 c43 -34 25 -109 -26 -109 -22
0 -23 9 -3 38 12 16 13 26 5 42 -14 26 -26 25 -35 -2 -7 -22 -8 -21 -12 6 -7
47 27 59 71 25z m1156 5 c0 -9 -5 -14 -12 -12 -18 6 -21 28 -4 28 9 0 16 -7
16 -16z m1042 -19 c4 -15 4 -33 1 -38 -9 -15 -33 23 -33 51 0 32 22 23 32 -13z
m587 0 c20 -23 31 -46 30 -63 -1 -25 -2 -25 -9 6 -9 40 -37 73 -56 65 -8 -3
-14 1 -14 11 0 25 15 19 49 -19z m-739 5 c0 -5 -4 -10 -10 -10 -5 0 -10 5 -10
10 0 6 5 10 10 10 6 0 10 -4 10 -10z m-2210 -25 c0 -14 -4 -25 -9 -25 -10 0
-21 36 -13 44 12 13 22 5 22 -19z m64 -12 c3 -10 2 -34 -2 -53 -6 -28 -13 -36
-33 -38 -15 -2 -32 4 -39 13 -11 14 -10 17 8 22 15 3 24 16 28 39 7 36 29 46
38 17z m2886 -21 c0 -9 -5 -24 -10 -32 -7 -11 -10 -5 -10 23 0 23 4 36 10 32
6 -3 10 -14 10 -23z m109 -14 c0 -28 -2 -30 -9 -13 -12 28 -12 45 0 45 6 0 10
-15 9 -32z m-2109 5 c0 -4 -10 -17 -21 -29 -12 -13 -24 -38 -28 -56 -6 -30
-10 -33 -41 -33 -31 0 -35 3 -38 28 -5 39 54 97 97 97 17 0 31 -3 31 -7z m110
-2 c0 -5 -11 -16 -24 -25 -13 -8 -27 -29 -31 -46 -5 -25 -11 -30 -36 -30 -40
0 -37 40 9 93 16 17 82 24 82 8z m88 -18 c-14 -16 -28 -37 -30 -48 -3 -22 -58
-36 -58 -15 0 40 47 90 83 90 l31 0 -26 -27z m106 19 c6 -11 -73 -94 -85 -87
-17 11 -9 38 18 67 26 27 57 36 67 20z m1516 -18 c0 -8 -4 -14 -10 -14 -5 0
-10 9 -10 21 0 11 5 17 10 14 6 -3 10 -13 10 -21z m-1957 9 c4 -4 -4 -18 -17
-32 -13 -14 -26 -35 -28 -46 -2 -16 -12 -21 -46 -23 -25 -2 -42 1 -42 8 0 27
31 81 52 90 28 11 72 13 81 3z m-263 -6 c0 -2 -11 -18 -25 -37 -14 -19 -25
-42 -25 -52 0 -13 -8 -18 -30 -18 -25 0 -30 4 -30 24 0 37 46 86 81 86 16 0
29 -1 29 -3z m130 -6 c0 -5 -7 -11 -15 -14 -8 -4 -21 -22 -29 -42 -13 -31 -20
-36 -43 -33 -38 4 -40 29 -4 66 20 23 38 32 60 32 17 0 31 -4 31 -9z m1336
-25 c44 -44 46 -76 4 -76 -26 0 -31 5 -36 29 -4 17 -15 38 -25 47 -25 22 -24
34 2 34 12 0 36 -15 55 -34z m78 24 c26 -9 66 -63 66 -87 0 -8 -14 -13 -35
-13 -30 0 -35 3 -35 23 0 13 -11 34 -25 47 -36 34 -22 50 29 30z m-1772 -12
c-6 -7 -14 -29 -19 -48 -7 -28 -15 -36 -37 -38 -27 -3 -28 -2 -22 25 12 47 34
73 62 73 20 0 24 -3 16 -12z m96 -9 c-20 -14 -28 -30 -28 -50 0 -26 -4 -29
-30 -29 -26 0 -30 4 -30 27 0 40 36 73 79 73 l36 -1 -27 -20z m1509 -5 c32
-33 23 -42 -15 -15 -17 12 -37 21 -46 21 -9 0 -16 5 -16 10 0 20 52 9 77 -16z
m322 -11 c39 -47 39 -63 1 -63 -25 0 -32 6 -45 36 -8 21 -23 43 -33 50 -15 12
-14 13 15 14 24 0 38 -8 62 -37z m120 2 c17 -20 31 -42 31 -50 0 -22 -59 -20
-67 3 -4 9 -18 32 -31 50 l-24 32 30 0 c22 0 38 -10 61 -35z m121 8 c16 -16
33 -43 36 -60 6 -30 4 -33 -20 -33 -20 0 -29 8 -40 34 -8 19 -24 39 -35 46
-12 6 -21 17 -21 25 0 25 47 17 80 -12z m-2266 -20 c-9 -50 -11 -53 -40 -53
-31 0 -32 27 -3 64 31 40 51 35 43 -11z m1516 11 c94 -27 171 -75 251 -155
119 -118 173 -249 172 -419 -1 -261 -184 -497 -439 -565 -33 -9 -100 -16 -154
-17 -393 -2 -677 386 -560 765 63 204 251 369 463 407 68 12 199 4 267 -16z
m847 18 c12 -8 43 -73 43 -92 0 -5 -12 -10 -28 -10 -23 0 -31 8 -50 49 -12 27
-22 52 -22 55 0 9 43 7 57 -2z m-2451 -14 c4 -6 0 -16 -9 -23 -10 -7 -17 -22
-17 -34 0 -16 -6 -21 -25 -21 -40 0 -43 29 -7 62 35 31 47 34 58 16z m2557
-13 c12 -14 31 -38 40 -54 17 -29 17 -30 -3 -36 -12 -4 -27 -1 -35 5 -14 12
-65 93 -65 104 0 16 42 3 63 -19z m115 -1 c33 -23 45 -50 32 -74 -16 -29 -37
-24 -45 11 -4 18 -16 35 -31 41 -13 6 -24 17 -24 25 0 18 41 17 68 -3z m107
-19 c30 -29 35 -78 8 -73 -10 2 -19 13 -21 25 -2 11 -12 29 -23 39 -10 9 -19
21 -19 26 0 17 32 7 55 -17z m-2899 -1 c-3 -9 -6 -25 -6 -36 0 -13 -5 -18 -17
-16 -27 6 -15 68 13 68 11 0 14 -5 10 -16z m2996 -21 c22 -20 24 -53 3 -53 -8
0 -15 8 -15 17 0 9 -7 25 -17 35 -21 24 3 25 29 1z m86 -30 c-4 -39 -26 -39
-36 -1 -11 41 -6 51 19 37 14 -7 19 -18 17 -36z m-2177 -13 c43 -23 0 -106
-49 -93 -13 3 -22 1 -22 -6 0 -6 6 -11 13 -11 6 0 -5 -15 -25 -33 -29 -25 -36
-38 -31 -55 6 -25 -20 -62 -44 -62 -16 0 -16 -1 2 -36 9 -17 11 -30 5 -32 -15
-5 -12 -22 4 -22 28 0 37 -76 11 -86 -19 -8 -154 26 -170 42 -12 13 -63 13
-81 1 -6 -3 -25 0 -42 8 -22 12 -33 26 -42 63 -7 26 -23 65 -36 87 -18 33 -54
144 -54 169 0 3 8 6 18 6 16 1 16 1 0 14 -10 7 -18 16 -18 19 0 24 519 49 561
27z m1441 -37 c-6 -52 11 -73 58 -73 36 0 50 17 50 62 0 21 4 38 9 38 16 0 34
-31 34 -60 0 -16 6 -31 14 -34 13 -5 13 -52 -1 -74 -4 -7 -1 -14 7 -18 11 -4
12 -15 7 -45 -10 -54 -44 -89 -87 -89 -37 0 -41 -7 -15 -26 14 -11 15 -16 4
-33 -16 -27 0 -27 24 0 10 12 38 32 61 46 23 13 45 32 48 42 13 41 78 48 118
13 25 -22 21 -47 -15 -87 -31 -36 -31 -36 -15 -71 22 -45 39 -51 88 -29 34 16
46 17 93 6 67 -15 98 -44 114 -108 16 -62 1 -152 -28 -172 -11 -7 -20 -22 -20
-32 0 -11 -15 -36 -33 -56 -32 -37 -67 -102 -67 -125 0 -25 -44 -58 -77 -58
-28 0 -33 4 -33 24 0 13 7 29 15 36 8 6 17 22 21 33 7 23 66 102 95 127 9 8
19 33 21 55 3 22 8 49 13 60 6 15 2 14 -16 -7 -30 -32 -52 -44 -106 -53 -39
-6 -113 8 -113 22 0 3 9 17 20 32 20 28 41 104 35 125 -2 6 -7 25 -11 41 -7
28 -8 26 -15 -22 -6 -46 -22 -82 -72 -157 -9 -15 -9 -20 1 -23 19 -7 14 -59
-9 -111 -14 -29 -22 -71 -24 -115 -3 -76 -10 -87 -62 -87 -23 0 -33 5 -33 15
0 8 5 15 11 15 8 0 10 17 7 50 -5 45 4 68 14 38 2 -6 10 -8 16 -4 20 12 13 60
-13 96 -14 19 -25 43 -25 53 0 17 -2 17 -16 6 -9 -8 -13 -21 -10 -35 4 -13 2
-25 -3 -28 -4 -3 -11 -22 -14 -42 -4 -20 -17 -53 -30 -73 -13 -20 -31 -48 -41
-63 -14 -24 -23 -28 -63 -28 l-47 0 32 33 c32 33 82 141 81 174 0 15 -2 15
-16 -4 -8 -13 -22 -23 -29 -23 -8 0 -14 -4 -14 -10 0 -5 5 -10 10 -10 19 0 10
-29 -12 -41 -14 -8 -18 -14 -10 -17 23 -7 12 -29 -20 -39 -27 -8 -33 -14 -31
-35 l1 -26 -169 -7 c-94 -4 -173 -5 -176 -2 -9 9 51 34 71 29 12 -3 17 1 13
10 -2 7 25 45 62 83 89 95 114 125 128 158 7 15 19 27 28 27 8 0 15 5 15 10 0
6 -4 10 -10 10 -15 0 -12 27 6 44 8 9 13 20 9 26 -3 5 1 47 9 92 9 46 17 99
18 118 l4 35 13 -27 c11 -22 12 -30 1 -43 -10 -12 -9 -16 4 -21 20 -8 21 -34
1 -34 -8 0 -15 -4 -15 -10 0 -5 7 -10 15 -10 20 0 19 -27 -2 -38 -14 -9 -14
-11 5 -21 28 -15 28 -31 2 -31 -11 0 -20 -5 -20 -11 0 -7 9 -9 23 -5 21 5 26
0 37 -34 7 -22 17 -40 22 -40 5 0 14 -13 21 -28 11 -26 15 -28 43 -20 39 10
98 92 115 161 15 62 7 69 -16 15 -10 -24 -27 -62 -37 -86 -22 -46 -53 -71 -70
-54 -7 7 9 45 50 117 68 119 59 125 -13 9 -48 -76 -66 -87 -89 -52 -8 14 0 27
49 76 33 32 69 74 79 93 15 26 4 18 -45 -33 -42 -44 -72 -68 -86 -68 -19 0 -8
14 55 76 76 75 76 75 12 20 -61 -53 -90 -68 -90 -47 0 5 12 19 28 30 l27 21
-26 -6 c-41 -9 -43 12 -4 35 45 27 45 41 -1 34 -29 -5 -36 -3 -32 8 5 14 26
23 81 34 24 5 27 8 17 20 -16 19 -56 19 -64 0 -6 -17 -53 -20 -76 -5 -11 8 -8
10 15 8 61 -4 76 33 23 55 -31 13 -32 14 -10 21 23 8 29 21 12 31 -18 11 -11
84 10 105 24 24 25 38 3 62 -13 14 -14 21 -5 30 7 7 12 19 12 27 0 15 28 51
40 51 4 0 5 -21 2 -47z m-2112 22 c10 -12 10 -19 2 -27 -7 -7 -12 -21 -12 -32
1 -19 3 -18 21 7 25 33 39 35 39 3 0 -19 4 -23 20 -19 15 4 20 0 20 -15 0 -12
-4 -24 -10 -27 -15 -10 -12 -35 4 -29 22 8 30 -15 12 -35 -18 -20 -21 -41 -6
-41 6 0 10 5 10 10 0 6 7 10 15 10 8 0 15 -7 15 -15 0 -8 -4 -15 -9 -15 -5 0
-11 -7 -15 -15 -4 -12 0 -14 19 -9 33 8 32 -10 -2 -42 l-28 -26 38 6 c31 4 37
2 37 -14 0 -10 -10 -26 -22 -35 -23 -17 -23 -17 10 -10 42 9 43 -11 1 -29 -17
-7 -27 -16 -22 -19 14 -9 151 -10 200 -2 34 6 52 2 99 -20 51 -24 61 -26 96
-16 60 18 73 66 42 148 -17 42 -16 43 10 81 14 21 26 47 26 59 0 11 18 37 39
56 22 20 45 45 51 56 12 24 50 29 50 7 0 -8 -16 -28 -35 -45 -39 -34 -42 -43
-20 -61 24 -20 18 -49 -11 -61 -25 -9 -26 -11 -10 -28 15 -17 15 -19 1 -25
-13 -5 -13 -9 -3 -25 10 -17 9 -23 -7 -41 -16 -18 -17 -23 -5 -30 12 -8 13
-13 3 -29 -6 -10 -9 -27 -7 -38 10 -36 -47 -65 -153 -78 -57 -7 -60 -10 -38
-39 8 -11 15 -36 15 -56 0 -27 11 -52 40 -93 33 -46 49 -58 90 -72 49 -16 51
-18 48 -53 -2 -30 0 -37 16 -37 12 0 28 -17 44 -45 31 -55 26 -94 -13 -104
-35 -9 -48 0 -34 25 5 11 7 29 4 39 -8 25 -93 130 -105 130 -6 0 -31 13 -57
29 -27 16 -68 32 -93 36 -55 9 -123 37 -166 70 -18 14 -35 25 -38 25 -2 0 -6
-15 -8 -32 -3 -28 -7 -34 -32 -36 -21 -3 -37 5 -61 28 -19 18 -44 38 -56 44
-13 6 -29 22 -35 34 -20 40 -27 38 -20 -7 6 -42 5 -45 -41 -91 -39 -38 -57
-49 -95 -54 -52 -8 -77 -28 -60 -49 6 -7 12 -33 14 -57 2 -37 7 -46 24 -48 12
-2 26 -14 33 -28 15 -34 15 -34 -20 -34 -21 0 -39 9 -59 30 -30 32 -36 57 -36
135 l1 50 58 28 c60 29 66 39 42 71 -25 33 -19 112 10 150 30 40 32 62 5 69
-15 4 -20 14 -20 40 0 20 4 38 9 41 25 16 14 220 -13 238 -18 12 -19 0 -1 -46
16 -42 16 -47 1 -70 -9 -14 -16 -31 -16 -38 0 -7 -4 -20 -10 -28 -7 -12 -12
-12 -29 4 -22 20 -29 80 -10 91 6 4 7 19 4 35 -3 16 -2 31 4 35 6 3 11 19 11
35 0 16 4 31 9 34 4 3 11 18 14 33 3 16 18 35 34 45 37 21 116 23 133 3z
m2016 -10 c-3 -9 0 -25 7 -37 9 -16 9 -22 0 -25 -16 -6 -17 -30 -1 -35 7 -3 9
-11 3 -24 -4 -10 -7 -44 -6 -75 2 -51 0 -57 -24 -73 -15 -10 -28 -16 -30 -14
-6 7 -35 118 -35 136 0 11 -7 23 -16 26 -10 4 -13 13 -9 27 5 15 2 22 -14 26
-12 3 -24 17 -28 32 -3 14 -13 31 -22 38 -13 10 3 12 83 13 84 0 97 -2 92 -15z
m174 -20 c0 -32 -28 -45 -46 -21 -17 24 -7 46 22 46 19 0 24 -5 24 -25z m164
19 c9 -3 16 -12 16 -20 0 -8 7 -14 15 -14 8 0 15 5 15 10 0 6 5 10 10 10 6 0
10 -9 10 -20 0 -21 26 -28 32 -9 2 7 21 2 51 -12 36 -18 47 -28 47 -46 0 -25
10 -29 27 -12 8 8 18 6 37 -6 28 -19 35 -55 11 -55 -8 0 -15 -7 -15 -15 0 -8
7 -15 15 -15 8 0 15 -4 15 -10 0 -5 -7 -10 -15 -10 -8 0 -15 -7 -15 -15 0 -8
7 -15 15 -15 8 0 15 -9 15 -20 0 -11 -7 -20 -15 -20 -8 0 -15 -5 -15 -10 0 -6
7 -13 15 -16 8 -4 15 -12 15 -20 0 -8 -7 -14 -15 -14 -8 0 -15 -7 -15 -15 0
-8 7 -15 16 -15 9 0 14 -6 12 -12 -3 -7 -25 -14 -49 -16 -48 -3 -110 14 -93
26 13 8 13 81 0 101 -6 10 -6 16 2 19 17 5 15 32 -2 32 -7 0 -34 9 -60 20 -32
15 -46 27 -46 40 0 22 -26 27 -33 8 -3 -10 -7 -10 -20 1 -19 15 -23 46 -7 56
14 9 12 25 -3 25 -17 0 -38 78 -23 84 16 7 33 7 50 0z m-2759 -128 c24 -86 35
-203 36 -396 2 -190 -10 -275 -47 -340 -16 -28 -15 -20 8 60 9 32 12 109 10
275 -3 250 -17 364 -52 420 -12 20 -19 43 -16 52 11 27 44 -13 61 -71z m3185
22 c9 -29 14 -151 17 -378 5 -330 -1 -478 -17 -449 -13 23 -37 653 -32 817 2
63 15 67 32 10z m-3114 -40 c16 -63 18 -118 19 -413 0 -332 -1 -341 -23 -389
-27 -59 -37 -56 -22 7 25 114 21 703 -6 840 -3 15 -1 27 4 27 5 0 18 -33 28
-72z m3265 -15 c24 -84 43 -319 35 -433 -5 -77 -40 -278 -50 -288 -10 -10 -15
106 -21 448 -5 385 -2 410 36 273z m-68 -173 c9 -218 4 -502 -11 -575 -7 -35
-9 -29 -15 55 -12 159 -21 672 -13 725 15 95 29 18 39 -205z m-3138 97 c13
-67 24 -113 24 -101 2 44 30 39 65 -13 20 -29 22 -40 15 -75 -11 -47 -35 -108
-44 -108 -3 0 -10 10 -15 23 -8 21 -9 20 -10 -8 0 -16 -11 -43 -24 -58 l-23
-28 -6 83 c-10 128 -18 435 -11 420 3 -7 17 -68 29 -135z m3324 -84 c9 -124 2
-231 -21 -358 -12 -66 -13 -57 -16 190 -2 143 0 280 4 305 7 45 7 45 15 15 5
-16 13 -85 18 -152z m-3498 -148 c0 -110 -4 -216 -10 -235 -6 -24 -9 54 -9
250 0 213 3 272 10 235 5 -27 10 -140 9 -250z m3562 25 c0 -17 -7 -38 -16 -48
-16 -15 -17 -12 -17 48 0 60 1 63 17 48 9 -10 16 -31 16 -48z m-3619 -12 c21
-30 20 -51 -3 -79 l-19 -24 -3 63 c-4 67 1 75 25 40z m-44 -38 c0 -11 -4 -20
-10 -20 -5 0 -10 9 -10 20 0 11 5 20 10 20 6 0 10 -9 10 -20z m1214 -26 c20
-8 21 -24 1 -24 -8 0 -15 -7 -15 -15 0 -8 9 -15 20 -15 11 0 20 -6 20 -14 0
-8 -7 -13 -16 -12 -9 0 -19 -5 -22 -13 -3 -10 1 -13 15 -9 16 4 24 -5 45 -53
15 -33 22 -59 17 -59 -5 0 -9 -7 -9 -16 0 -9 7 -14 18 -12 12 3 36 -25 90
-106 39 -60 72 -111 72 -112 0 -6 -90 -14 -103 -8 -18 7 -24 54 -7 54 6 0 10
5 10 10 0 6 -8 10 -18 10 -22 0 -95 120 -87 142 4 10 -7 18 -37 28 -57 17 -90
38 -82 51 3 6 -4 20 -17 32 l-24 22 23 3 c30 4 28 22 -2 22 -19 0 -25 6 -29
33 -7 48 0 56 51 60 26 2 52 4 59 5 6 1 18 -1 27 -4z m-824 -38 c0 -7 -9 -16
-20 -19 -15 -4 -20 -14 -20 -36 0 -29 -3 -31 -35 -31 -39 0 -42 8 -19 51 21
41 94 68 94 35z m-59 -116 c40 0 37 -23 -4 -48 -37 -22 -47 -52 -47 -150 0
-52 -21 -112 -40 -112 -6 0 -5 11 1 28 6 15 11 81 10 146 -1 121 7 153 36 141
8 -3 28 -5 44 -5z m304 -54 c19 -8 35 -21 35 -29 0 -17 60 -27 157 -27 69 0
103 -12 103 -35 0 -9 10 -15 25 -15 13 0 43 -7 66 -17 77 -30 88 -125 16 -138
-18 -4 -146 -5 -283 -3 -266 3 -301 9 -289 49 4 12 1 21 -8 25 -9 3 -13 13
-10 25 5 17 2 19 -21 13 -24 -6 -26 -3 -26 22 0 39 8 48 59 64 25 8 59 29 75
47 35 36 52 39 101 19z m2495 -21 c0 -9 -59 -35 -81 -35 -17 0 -19 -3 -10 -14
21 -25 -53 -176 -86 -176 -9 0 -13 -6 -10 -13 7 -19 -8 -41 -22 -32 -7 3 -9
15 -6 26 4 13 2 19 -9 19 -9 0 -16 7 -16 15 0 8 5 15 10 15 6 0 10 7 10 15 0
8 -4 15 -10 15 -5 0 -10 7 -10 15 0 8 7 15 15 15 18 0 20 27 3 32 -9 3 -9 15
1 50 l13 46 57 -5 c31 -3 72 -1 91 5 40 12 60 14 60 7z m-2052 -59 c42 -22 81
-64 97 -107 3 -8 -1 -32 -10 -52 -13 -31 -20 -37 -45 -37 -36 0 -36 2 -9 39
19 25 20 33 10 62 -15 44 -39 72 -79 93 -18 9 -32 19 -32 21 0 10 23 4 68 -19z
m2202 -51 c4 -11 3 -25 -2 -32 -6 -7 -16 -32 -23 -55 -10 -35 -17 -44 -39 -46
-20 -3 -26 1 -26 16 0 11 7 25 15 32 18 15 20 61 4 77 -9 9 -9 20 1 43 l13 31
24 -23 c14 -13 29 -32 33 -43z m-535 -45 c-4 -20 -11 -28 -16 -23 -6 6 -5 20
2 37 16 34 23 26 14 -14z m435 11 c0 -11 -4 -23 -10 -26 -5 -3 -10 -22 -10
-41 0 -19 -4 -34 -10 -34 -15 0 -22 62 -11 93 12 31 41 37 41 8z m-2780 -109
c0 -4 -5 -13 -12 -20 -8 -8 -8 -15 1 -26 17 -21 -2 -28 -27 -10 -27 18 -28 39
-4 53 21 13 42 14 42 3z m90 -11 c0 -6 -5 -13 -10 -16 -6 -4 -8 -16 -4 -27 5
-16 2 -19 -17 -16 -29 4 -36 30 -14 52 18 17 45 22 45 7z m145 -17 c-9 -7 -14
-17 -11 -23 14 -22 -13 -19 -34 4 -24 25 -23 25 20 38 8 2 21 2 29 -1 11 -4
10 -8 -4 -18z m129 19 c4 -4 -3 -15 -16 -25 -20 -15 -21 -20 -10 -38 13 -21 7
-25 -28 -20 -20 3 -50 30 -50 46 0 7 19 19 43 27 51 19 52 19 61 10z m99 1 c3
-4 -4 -15 -16 -25 -18 -15 -20 -21 -10 -37 22 -37 -26 -46 -51 -10 -18 25 -14
33 28 59 34 21 40 22 49 13z m167 -4 c12 -8 12 -10 -3 -16 -18 -7 -23 -39 -7
-49 6 -3 10 -13 10 -21 0 -22 -57 -18 -70 5 -15 29 -13 39 15 66 27 27 33 29
55 15z m-470 -10 c0 -5 -5 -10 -11 -10 -6 0 -8 -9 -4 -20 5 -14 2 -20 -10 -20
-18 0 -30 23 -21 45 6 17 46 21 46 5z m376 -9 c-11 -12 -15 -27 -11 -44 4 -14
2 -28 -5 -32 -13 -8 -50 22 -50 41 0 16 48 54 68 54 13 0 13 -3 -2 -19z m449
9 c3 -5 -9 -18 -27 -29 -49 -29 -58 -39 -51 -57 7 -18 -14 -35 -34 -27 -20 8
-43 57 -34 71 8 14 97 51 123 52 9 0 20 -4 23 -10z m125 -1 c8 -6 11 -12 5
-15 -5 -2 -28 -15 -50 -27 -32 -19 -40 -28 -38 -50 2 -24 -2 -27 -32 -27 -33
0 -55 20 -55 50 0 6 33 27 73 45 83 39 77 38 97 24z m1767 -8 c11 -18 8 -31
-7 -31 -4 0 -12 11 -18 25 -14 31 6 36 25 6z m-2172 -11 c-15 -17 -16 -24 -6
-46 6 -15 10 -29 7 -31 -10 -11 -44 9 -57 33 -12 24 -12 28 10 45 13 10 32 19
44 19 19 0 20 -1 2 -20z m134 11 c11 -7 9 -10 -7 -15 -32 -11 -47 -33 -32 -51
6 -8 9 -19 5 -25 -11 -17 -54 -11 -65 9 -18 35 -11 57 23 74 37 18 56 20 76 8z
m1973 -8 c17 -15 25 -43 12 -43 -8 0 -43 43 -44 53 0 12 12 8 32 -10z m-1646
-18 c-11 -8 -24 -15 -29 -15 -5 0 -6 -15 -3 -34 6 -30 4 -34 -19 -38 -24 -5
-55 17 -55 38 0 19 66 63 95 63 29 0 29 0 11 -14z m629 -16 c45 -40 45 -74 0
-74 -24 0 -31 5 -33 25 -2 14 -13 35 -24 46 -15 17 -16 23 -6 27 23 9 26 8 63
-24z m971 10 c15 -17 16 -22 4 -29 -9 -6 -19 -1 -32 15 -10 13 -18 26 -18 29
0 14 28 5 46 -15z m-1521 2 c3 -5 0 -13 -5 -16 -7 -4 -8 -19 -5 -37 7 -28 6
-29 -26 -26 -42 4 -50 30 -18 64 23 25 44 31 54 15z m464 -17 c25 -32 27 -60
5 -68 -28 -11 -44 -6 -44 12 0 10 -7 27 -15 38 -22 29 -18 35 27 43 4 0 16
-11 27 -25z m175 -1 c32 -32 31 -67 -1 -71 -18 -3 -23 2 -23 18 0 12 -9 35
-21 51 -20 28 -20 29 -1 29 11 0 31 -12 46 -27z m101 15 c51 -23 40 -92 -14
-86 -21 2 -25 8 -23 29 2 14 -4 31 -12 38 -32 27 3 40 49 19z m104 -16 c27
-22 32 -33 27 -50 -5 -16 -15 -22 -37 -22 -26 0 -29 3 -24 23 4 16 0 29 -14
41 -48 43 -2 50 48 8z m86 -3 c30 -37 29 -63 -3 -67 -19 -3 -22 1 -22 27 0 16
-4 33 -10 36 -13 8 -13 35 -1 35 5 0 21 -14 36 -31z m106 14 c15 -9 31 -23 34
-31 8 -21 -24 -52 -53 -52 -20 0 -23 4 -18 24 4 16 0 29 -14 41 -11 10 -20 22
-20 27 0 14 40 9 71 -9z m89 -3 c24 -24 27 -80 5 -80 -9 0 -15 9 -15 25 0 15
-11 36 -26 50 -26 24 -26 25 -5 25 11 0 30 -9 41 -20z m93 8 c23 -19 31 -62
14 -77 -12 -9 -18 -4 -36 29 -27 53 -17 77 22 48z m97 -7 c16 -32 12 -61 -9
-61 -20 0 -47 52 -36 69 10 17 33 13 45 -8z m64 3 c9 -24 7 -54 -4 -54 -12 0
-30 33 -30 54 0 21 26 21 34 0z m74 -8 c8 -19 8 -27 -3 -36 -11 -9 -16 -7 -24
9 -6 11 -11 27 -11 35 0 25 26 19 38 -8z m-1375 -13 c-2 -7 1 -23 7 -37 7 -21
6 -26 -10 -31 -39 -12 -86 41 -65 75 9 15 71 8 68 -7z m316 -15 c12 -35 3 -48
-34 -48 -16 0 -20 6 -19 33 2 47 2 47 23 47 12 0 23 -11 30 -32z m-223 12 c31
0 34 -3 34 -30 0 -28 -2 -30 -40 -30 -29 0 -42 5 -50 19 -16 30 -13 54 6 47 9
-3 31 -6 50 -6z m139 -25 c0 -28 -3 -30 -35 -30 -30 0 -35 3 -38 27 -3 27 12
38 53 35 15 -2 20 -9 20 -32z m-250 -65 c12 -19 -16 -40 -51 -40 -34 0 -40 6
-26 26 14 22 66 31 77 14z m109 4 c20 -8 20 -18 0 -38 -17 -17 -61 -21 -83 -7
-11 7 -9 13 8 30 21 21 46 26 75 15z m110 -3 c15 -23 -7 -41 -50 -41 -48 0
-49 2 -34 31 11 20 73 28 84 10z m83 -25 c-15 -22 -54 -34 -67 -19 -4 4 -4 17
0 29 7 16 15 19 44 16 35 -4 36 -5 23 -26z m-1267 14 c0 -13 -28 -25 -38 -16
-3 4 0 11 8 16 20 13 30 12 30 0z m60 0 c0 -12 -28 -25 -36 -17 -9 9 6 27 22
27 8 0 14 -5 14 -10z m68 -2 c-5 -15 -48 -24 -48 -10 0 14 12 22 33 22 10 0
17 -5 15 -12z m76 -3 c-4 -8 -17 -15 -30 -15 -17 0 -22 4 -18 15 4 8 17 15 30
15 17 0 22 -4 18 -15z m74 3 c-5 -15 -48 -24 -48 -10 0 14 12 22 33 22 10 0
17 -5 15 -12z m82 -3 c0 -10 -10 -15 -31 -15 -27 0 -30 2 -19 15 7 8 21 15 31
15 11 0 19 -7 19 -15z m80 0 c0 -10 -10 -15 -30 -15 -22 0 -28 4 -24 15 4 8
17 15 30 15 15 0 24 -6 24 -15z m80 5 c0 -6 -12 -15 -26 -20 -34 -13 -34 -13
-34 10 0 16 7 20 30 20 17 0 30 -5 30 -10z m74 -5 c-7 -16 -39 -29 -53 -20
-19 11 1 35 30 35 21 0 27 -4 23 -15z m76 5 c0 -16 -41 -33 -52 -22 -6 6 -7
15 -4 21 9 14 56 15 56 1z m100 0 c0 -14 -35 -30 -64 -30 -28 0 -29 1 -20 24
7 18 84 23 84 6z m100 2 c0 -18 -26 -32 -57 -32 -35 0 -41 8 -21 28 13 13 78
17 78 4z m490 -12 c0 -16 -7 -20 -35 -20 -28 0 -35 4 -35 20 0 16 7 20 35 20
28 0 35 -4 35 -20z m88 -2 c3 -14 -3 -18 -27 -18 -31 0 -47 13 -36 31 11 16
59 6 63 -13z m86 16 c30 -12 18 -34 -19 -34 -28 0 -35 4 -35 20 0 20 22 26 54
14z m75 -3 c18 -11 5 -31 -20 -31 -12 0 -19 7 -19 20 0 21 16 26 39 11z m76
-11 c0 -8 -10 -16 -22 -18 -22 -3 -32 16 -16 32 12 11 38 2 38 -14z m73 -3 c3
-12 -3 -17 -22 -17 -25 0 -35 18 -19 34 12 12 38 2 41 -17z m-1871 7 c-3 -3
-12 -4 -19 -1 -8 3 -5 6 6 6 11 1 17 -2 13 -5z m48 -4 c-3 -5 -10 -10 -16 -10
-5 0 -9 5 -9 10 0 6 7 10 16 10 8 0 12 -4 9 -10z m1893 -2 c-7 -20 -48 -23
-48 -4 0 11 9 16 26 16 16 0 24 -5 22 -12z m72 3 c0 -15 -16 -22 -34 -15 -25
9 -19 24 9 24 14 0 25 -4 25 -9z m70 -1 c0 -5 -9 -10 -20 -10 -11 0 -20 5 -20
10 0 6 9 10 20 10 11 0 20 -4 20 -10z m70 0 c0 -5 -9 -10 -20 -10 -11 0 -20 5
-20 10 0 6 9 10 20 10 11 0 20 -4 20 -10z m70 0 c0 -5 -9 -10 -20 -10 -11 0
-20 5 -20 10 0 6 9 10 20 10 11 0 20 -4 20 -10z m55 0 c3 -5 -3 -10 -14 -10
-12 0 -21 5 -21 10 0 6 6 10 14 10 8 0 18 -4 21 -10z m55 0 c0 -5 -7 -10 -15
-10 -8 0 -15 5 -15 10 0 6 7 10 15 10 8 0 15 -4 15 -10z m53 -7 c-7 -2 -19 -2
-25 0 -7 3 -2 5 12 5 14 0 19 -2 13 -5z m44 1 c-3 -3 -12 -4 -19 -1 -8 3 -5 6
6 6 11 1 17 -2 13 -5z m-2199 -73 c5 -46 -4 -67 -22 -52 -20 17 -29 61 -15 77
18 22 34 11 37 -25z m106 23 c19 -18 30 -59 21 -73 -10 -17 -42 -13 -49 5 -9
24 -7 84 3 84 5 0 17 -7 25 -16z m133 4 c6 -7 13 -30 17 -50 6 -35 5 -38 -17
-38 -32 0 -47 18 -47 55 0 45 25 61 47 33z m108 4 c6 -4 18 -24 27 -45 20 -42
12 -52 -33 -45 -29 4 -49 59 -29 83 14 17 20 18 35 7z m128 -5 c10 -6 20 -29
24 -50 l6 -38 -39 3 c-36 3 -39 5 -42 36 -6 59 13 77 51 49z m1645 -16 c4 -25
-23 -61 -45 -61 -15 0 -18 16 -4 24 4 3 11 20 15 37 7 35 29 35 34 0z m-2244
10 c10 -16 -6 -71 -20 -71 -16 0 -29 43 -20 65 6 16 32 20 40 6z m733 -3 c14
-18 23 -57 16 -74 -8 -20 -60 -18 -71 4 -6 9 -13 32 -17 50 -6 31 -6 32 28 32
19 0 39 -6 44 -12z m769 4 c12 -7 17 -37 15 -75 -1 -14 -8 -18 -33 -15 -29 3
-34 8 -42 41 -8 30 -7 40 5 48 17 11 40 11 55 1z m109 -38 c5 -34 3 -49 -7
-55 -31 -20 -53 -5 -62 44 -9 46 -2 57 33 57 26 0 29 -4 36 -46z m331 22 c11
-44 1 -71 -27 -74 -25 -3 -27 0 -31 40 -6 53 -3 58 27 58 18 0 26 -7 31 -24z
m-1061 3 c4 -6 4 -26 1 -45 -7 -32 -9 -34 -46 -34 -36 0 -40 2 -40 26 0 41 18
64 50 64 16 0 32 -5 35 -11z m107 -12 c20 -32 -10 -70 -51 -65 -22 2 -27 9
-29 37 -2 20 2 37 10 43 16 10 60 1 70 -15z m108 -4 c0 -37 -11 -52 -40 -55
-21 -3 -26 2 -28 25 -5 43 4 57 38 57 26 0 30 -4 30 -27z m88 -12 c4 -42 -7
-55 -40 -42 -18 7 -27 19 -30 40 -6 38 -2 43 37 39 26 -3 30 -7 33 -37z m110
27 c17 -17 15 -53 -3 -68 -34 -28 -98 22 -82 64 8 19 67 22 85 4z m111 -19
c18 -52 15 -59 -28 -59 -36 0 -40 3 -51 35 -14 44 -7 55 35 55 28 0 35 -5 44
-31z m319 8 c2 -10 1 -29 -2 -43 -5 -19 -13 -24 -40 -24 -27 0 -35 5 -39 23
-3 12 -9 32 -13 45 -6 22 -5 23 42 20 38 -2 50 -7 52 -21z m118 9 c9 -23 -19
-71 -44 -74 -16 -3 -25 4 -32 23 -20 52 -14 65 30 65 26 0 43 -5 46 -14z m263
5 c22 -14 5 -60 -25 -67 -33 -8 -37 -3 -29 40 7 37 25 45 54 27z"/>
<path d="M1825 6678 c-55 -30 -114 -82 -102 -90 21 -13 34 -9 77 27 53 44 80
44 130 -1 22 -20 43 -34 47 -30 8 8 -14 53 -41 84 -22 24 -76 30 -111 10z"/>
<path d="M2349 6641 c-39 -39 -51 -71 -26 -71 7 0 27 16 44 35 37 42 58 44
103 10 36 -27 64 -33 58 -12 -8 22 -89 77 -115 77 -16 0 -39 -14 -64 -39z"/>
<path d="M2110 5996 c0 -24 -20 -29 -35 -10 -14 18 -14 18 -15 -3 0 -12 10
-29 22 -38 21 -14 24 -14 35 2 15 20 17 63 3 63 -5 0 -10 -6 -10 -14z"/>
<path d="M2360 5913 c0 -16 -11 -45 -25 -64 -25 -37 -24 -52 1 -42 33 13 59
112 34 128 -6 4 -10 -6 -10 -22z"/>
<path d="M1931 5877 c-1 -36 15 -67 36 -67 14 0 13 3 -4 23 -12 12 -23 33 -26
47 -4 24 -4 24 -6 -3z"/>
<path d="M1990 2361 c-185 -60 -319 -196 -374 -380 -20 -69 -21 -208 -1 -286
50 -190 206 -341 405 -391 84 -21 221 -14 305 15 265 93 419 383 349 655 -48
185 -205 343 -389 391 -80 21 -225 19 -295 -4z m115 -31 c3 -5 19 -10 35 -10
16 0 32 5 35 10 10 16 28 11 21 -6 -6 -15 -25 -165 -41 -316 -4 -32 -10 -58
-14 -58 -3 0 -14 62 -24 138 -10 75 -24 162 -32 192 l-14 55 5 -76 c2 -41 13
-127 24 -190 23 -130 23 -129 12 -129 -4 0 -16 23 -26 51 -10 29 -42 106 -73
173 -30 67 -57 126 -59 133 -4 8 6 10 34 6 34 -5 43 -2 54 16 13 22 52 29 63
11z m135 -10 c21 -21 55 -27 64 -11 8 13 46 1 46 -14 0 -22 38 -48 65 -43 14
3 25 2 25 -1 0 -3 -25 -37 -56 -76 -31 -38 -84 -109 -117 -157 -58 -83 -95
-111 -61 -46 29 56 125 310 121 321 -5 15 -42 -68 -102 -225 -48 -127 -70
-157 -54 -75 4 24 13 92 19 153 16 157 21 194 26 194 2 0 13 -9 24 -20z m-280
-77 c11 -32 46 -113 77 -181 31 -67 52 -126 49 -130 -4 -4 -12 0 -16 9 -17 30
-187 244 -214 268 -29 27 -26 44 8 35 25 -6 56 17 56 42 0 32 20 10 40 -43z
m550 -71 c29 -5 49 -29 43 -53 -7 -25 15 -59 37 -59 38 0 19 -18 -42 -40 -35
-12 -117 -47 -182 -76 -65 -30 -121 -54 -122 -54 -16 0 5 23 54 57 86 61 244
194 238 200 -6 6 -151 -102 -251 -187 -33 -28 -61 -46 -63 -41 -2 6 19 37 47
70 27 33 80 103 116 156 l67 96 17 -33 c10 -21 25 -34 41 -36z m-620 -29 c36
-49 91 -119 123 -156 59 -68 70 -96 24 -61 -14 11 -60 46 -103 80 -44 33 -105
78 -136 99 -63 41 -71 55 -34 55 28 0 57 35 49 56 -14 37 19 6 77 -73z m81
-190 c45 -31 77 -59 72 -60 -6 -2 -55 15 -109 38 -54 23 -132 54 -174 68 -41
15 -76 30 -78 35 -2 5 7 14 20 20 15 8 24 21 25 41 0 17 2 33 2 37 1 4 37 -21
81 -57 44 -35 116 -90 161 -122z m642 38 c-4 -32 -1 -41 17 -54 l23 -16 -24
-5 c-13 -3 -53 -8 -89 -11 -36 -4 -114 -15 -174 -25 -97 -17 -129 -19 -115 -6
2 2 50 22 107 45 57 23 133 57 170 76 87 44 91 44 85 -4z m-771 -44 c86 -35
167 -68 180 -72 49 -15 -11 -16 -114 -1 -56 8 -140 18 -185 22 -46 4 -83 8
-83 10 0 2 9 13 20 24 21 21 26 55 10 65 -15 9 -12 28 3 22 6 -3 83 -35 169
-70z m354 -51 c58 -50 24 -140 -52 -140 -28 0 -42 7 -60 28 -32 37 -30 71 5
107 36 35 70 37 107 5z m445 -19 c-14 -14 -14 -64 -1 -72 17 -11 11 -50 -10
-63 -22 -14 -27 -51 -8 -70 20 -20 4 -15 -165 52 -89 35 -172 67 -184 71 -13
3 -23 11 -23 17 0 6 10 8 23 5 50 -13 262 -37 315 -36 53 1 54 2 22 9 -33 8
-301 40 -335 40 -8 0 -15 4 -15 8 0 5 60 16 133 26 72 9 159 23 192 30 59 12
79 6 56 -17z m-827 -12 c61 -8 134 -15 163 -15 38 0 53 -4 53 -14 0 -9 -23
-15 -82 -20 -46 -4 -132 -15 -193 -26 -60 -10 -112 -17 -114 -14 -3 2 1 10 7
16 15 15 16 64 2 73 -23 14 -9 27 23 21 17 -4 81 -13 141 -21z m222 -64 c-4
-5 -26 -16 -50 -24 -83 -29 -309 -131 -297 -135 13 -4 96 27 249 95 56 25 106
43 110 39 4 -4 -1 -12 -10 -17 -30 -17 -172 -125 -233 -177 -33 -29 -63 -52
-68 -52 -4 0 -5 11 -1 24 6 24 -2 34 -49 73 -11 9 -14 24 -10 51 4 33 2 42
-18 55 -12 9 -21 18 -18 20 2 3 65 12 139 21 74 10 153 21 175 26 56 11 87 12
81 1z m335 -64 c58 -25 137 -55 177 -68 l72 -23 -30 -25 c-20 -18 -30 -37 -32
-60 -3 -29 -8 -36 -32 -42 -28 -8 -51 -32 -51 -54 -1 -21 -29 -41 -51 -37 -21
4 -34 -6 -71 -51 -9 -11 -24 -14 -51 -10 -33 4 -42 2 -55 -18 -9 -12 -18 -21
-21 -18 -2 2 -9 49 -16 104 -6 55 -18 138 -26 185 -16 97 -17 110 -6 110 4 0
20 -35 36 -78 42 -113 118 -283 124 -277 7 7 -32 110 -90 243 -28 62 -48 116
-44 119 3 4 7 4 9 2 15 -22 184 -242 207 -269 16 -19 30 -30 30 -23 0 13 -67
104 -168 226 -63 78 -75 107 -29 71 211 -164 286 -218 293 -211 6 6 -163 140
-248 199 -32 21 -58 44 -58 49 0 6 6 9 13 6 6 -3 60 -25 118 -50z m-301 17 c0
-3 -38 -54 -83 -112 -100 -127 -151 -202 -144 -208 5 -6 113 129 194 244 25
34 49 62 53 62 5 0 -10 -42 -32 -92 -22 -51 -55 -133 -73 -183 -18 -49 -36
-90 -41 -92 -5 -2 -14 7 -19 19 -7 16 -20 24 -45 26 -40 4 -60 17 -60 40 0 22
-30 52 -52 52 -28 0 -21 13 21 39 21 12 89 65 152 116 107 88 129 103 129 89z
m36 -146 c-8 -57 -18 -142 -22 -190 -4 -49 -10 -88 -13 -88 -3 0 -12 10 -19
21 -11 18 -20 21 -53 16 -21 -3 -39 -3 -39 -1 0 3 10 24 21 46 17 34 65 152
124 303 15 41 16 -7 1 -107z m58 30 c4 -46 15 -132 26 -193 10 -60 17 -112 14
-114 -2 -3 -10 1 -16 7 -7 7 -24 12 -38 12 -14 0 -31 -5 -38 -12 -21 -21 -22
-3 -7 98 8 54 18 141 22 192 8 120 27 126 37 10z"/>
<path d="M2107 1872 c-10 -10 -17 -26 -17 -35 0 -21 35 -57 55 -57 8 0 24 9
35 20 11 11 20 27 20 35 0 21 -36 55 -58 55 -11 0 -26 -8 -35 -18z"/>
<path d="M1470 2280 c0 -5 7 -10 15 -10 8 0 15 5 15 10 0 6 -7 10 -15 10 -8 0
-15 -4 -15 -10z"/>
<path d="M1140 2270 c0 -5 7 -10 15 -10 8 0 15 5 15 10 0 6 -7 10 -15 10 -8 0
-15 -4 -15 -10z"/>
<path d="M1210 2270 c0 -5 7 -10 15 -10 8 0 15 5 15 10 0 6 -7 10 -15 10 -8 0
-15 -4 -15 -10z"/>
<path d="M1268 2268 c9 -9 15 -9 24 0 9 9 7 12 -12 12 -19 0 -21 -3 -12 -12z"/>
<path d="M1315 2270 c3 -5 10 -10 16 -10 5 0 9 5 9 10 0 6 -7 10 -16 10 -8 0
-12 -4 -9 -10z"/>
<path d="M1360 2270 c0 -5 4 -10 9 -10 6 0 13 5 16 10 3 6 -1 10 -9 10 -9 0
-16 -4 -16 -10z"/>
<path d="M1410 2270 c0 -5 4 -10 9 -10 6 0 13 5 16 10 3 6 -1 10 -9 10 -9 0
-16 -4 -16 -10z"/>
<path d="M980 2260 c0 -5 7 -10 15 -10 8 0 15 5 15 10 0 6 -7 10 -15 10 -8 0
-15 -4 -15 -10z"/>
<path d="M1040 2260 c0 -5 7 -10 15 -10 8 0 15 5 15 10 0 6 -7 10 -15 10 -8 0
-15 -4 -15 -10z"/>
<path d="M1100 2260 c0 -5 7 -10 16 -10 8 0 12 5 9 10 -3 6 -10 10 -16 10 -5
0 -9 -4 -9 -10z"/>
<path d="M1270 2210 c0 -5 5 -10 10 -10 6 0 10 5 10 10 0 6 -4 10 -10 10 -5 0
-10 -4 -10 -10z"/>
<path d="M1310 2210 c0 -5 7 -10 15 -10 8 0 15 5 15 10 0 6 -7 10 -15 10 -8 0
-15 -4 -15 -10z"/>
<path d="M1360 2210 c0 -5 7 -10 16 -10 8 0 12 5 9 10 -3 6 -10 10 -16 10 -5
0 -9 -4 -9 -10z"/>
<path d="M980 2200 c0 -5 7 -10 15 -10 8 0 15 5 15 10 0 6 -7 10 -15 10 -8 0
-15 -4 -15 -10z"/>
<path d="M1045 2200 c3 -5 10 -10 16 -10 5 0 9 5 9 10 0 6 -7 10 -16 10 -8 0
-12 -4 -9 -10z"/>
<path d="M1100 2200 c0 -5 4 -10 9 -10 6 0 13 5 16 10 3 6 -1 10 -9 10 -9 0
-16 -4 -16 -10z"/>
<path d="M1150 2200 c0 -5 4 -10 9 -10 6 0 13 5 16 10 3 6 -1 10 -9 10 -9 0
-16 -4 -16 -10z"/>
<path d="M1210 2200 c0 -5 7 -10 15 -10 8 0 15 5 15 10 0 6 -7 10 -15 10 -8 0
-15 -4 -15 -10z"/>
<path d="M985 2131 c-6 -11 9 -23 19 -14 9 9 7 23 -3 23 -6 0 -12 -4 -16 -9z"/>
<path d="M1047 2134 c-8 -8 1 -24 14 -24 5 0 9 7 9 15 0 15 -12 20 -23 9z"/>
<path d="M1100 2125 c0 -9 5 -15 11 -13 6 2 11 8 11 13 0 5 -5 11 -11 13 -6 2
-11 -4 -11 -13z"/>
<path d="M1150 2130 c0 -5 7 -10 15 -10 8 0 15 5 15 10 0 6 -7 10 -15 10 -8 0
-15 -4 -15 -10z"/>
<path d="M1215 2130 c3 -5 10 -10 16 -10 5 0 9 5 9 10 0 6 -7 10 -16 10 -8 0
-12 -4 -9 -10z"/>
<path d="M1260 2130 c0 -5 9 -10 20 -10 11 0 20 5 20 10 0 6 -9 10 -20 10 -11
0 -20 -4 -20 -10z"/>
<path d="M1320 2130 c0 -5 7 -10 15 -10 8 0 15 5 15 10 0 6 -7 10 -15 10 -8 0
-15 -4 -15 -10z"/>
<path d="M1040 2040 c0 -5 7 -10 16 -10 8 0 12 5 9 10 -3 6 -10 10 -16 10 -5
0 -9 -4 -9 -10z"/>
<path d="M1100 2040 c0 -5 7 -10 16 -10 8 0 12 5 9 10 -3 6 -10 10 -16 10 -5
0 -9 -4 -9 -10z"/>
<path d="M1150 2040 c0 -5 7 -10 15 -10 8 0 15 5 15 10 0 6 -7 10 -15 10 -8 0
-15 -4 -15 -10z"/>
<path d="M1215 2040 c-3 -5 1 -10 9 -10 9 0 16 5 16 10 0 6 -4 10 -9 10 -6 0
-13 -4 -16 -10z"/>
<path d="M1260 2040 c0 -5 7 -10 15 -10 8 0 15 5 15 10 0 6 -7 10 -15 10 -8 0
-15 -4 -15 -10z"/>
<path d="M1050 1970 c0 -5 7 -10 15 -10 8 0 15 5 15 10 0 6 -7 10 -15 10 -8 0
-15 -4 -15 -10z"/>
<path d="M1105 1970 c-3 -5 1 -10 9 -10 9 0 16 5 16 10 0 6 -4 10 -9 10 -6 0
-13 -4 -16 -10z"/>
<path d="M1150 1970 c0 -5 7 -10 15 -10 8 0 15 5 15 10 0 6 -7 10 -15 10 -8 0
-15 -4 -15 -10z"/>
<path d="M1210 1970 c0 -5 7 -10 15 -10 8 0 15 5 15 10 0 6 -7 10 -15 10 -8 0
-15 -4 -15 -10z"/>
<path d="M1265 1970 c-3 -5 3 -10 15 -10 12 0 18 5 15 10 -3 6 -10 10 -15 10
-5 0 -12 -4 -15 -10z"/>
<path d="M1220 1920 c0 -5 7 -10 16 -10 8 0 12 5 9 10 -3 6 -10 10 -16 10 -5
0 -9 -4 -9 -10z"/>
<path d="M1260 1920 c0 -5 9 -10 20 -10 11 0 20 5 20 10 0 6 -9 10 -20 10 -11
0 -20 -4 -20 -10z"/>
<path d="M1330 1920 c0 -5 7 -10 16 -10 8 0 12 5 9 10 -3 6 -10 10 -16 10 -5
0 -9 -4 -9 -10z"/>
<path d="M2945 2124 c-27 -29 -32 -44 -14 -44 6 0 20 -11 30 -25 17 -21 23
-23 44 -13 32 14 39 37 18 54 -14 10 -16 15 -5 25 19 21 14 29 -18 29 -21 0
-39 -9 -55 -26z m55 -53 c0 -12 -20 -25 -27 -18 -7 7 6 27 18 27 5 0 9 -4 9
-9z"/>
<path d="M3175 1940 c-3 -5 1 -10 9 -10 9 0 16 5 16 10 0 6 -4 10 -9 10 -6 0
-13 -4 -16 -10z"/>
<path d="M2820 1580 c0 -5 4 -10 9 -10 6 0 13 5 16 10 3 6 -1 10 -9 10 -9 0
-16 -4 -16 -10z"/>
<path d="M2750 1520 c0 -5 7 -10 15 -10 8 0 15 5 15 10 0 6 -7 10 -15 10 -8 0
-15 -4 -15 -10z"/>
<path d="M2810 1520 c0 -5 7 -10 15 -10 8 0 15 5 15 10 0 6 -7 10 -15 10 -8 0
-15 -4 -15 -10z"/>
<path d="M2870 1520 c0 -5 7 -10 15 -10 8 0 15 5 15 10 0 6 -7 10 -15 10 -8 0
-15 -4 -15 -10z"/>
<path d="M2690 1450 c0 -5 7 -10 15 -10 8 0 15 5 15 10 0 6 -7 10 -15 10 -8 0
-15 -4 -15 -10z"/>
<path d="M2750 1450 c0 -5 7 -10 15 -10 8 0 15 5 15 10 0 6 -7 10 -15 10 -8 0
-15 -4 -15 -10z"/>
<path d="M2800 1450 c0 -5 7 -10 15 -10 8 0 15 5 15 10 0 6 -7 10 -15 10 -8 0
-15 -4 -15 -10z"/>
<path d="M2750 1375 c0 -9 5 -15 11 -13 6 2 11 8 11 13 0 5 -5 11 -11 13 -6 2
-11 -4 -11 -13z"/>
<path d="M2800 1375 c0 -9 5 -15 11 -13 6 2 11 8 11 13 0 5 -5 11 -11 13 -6 2
-11 -4 -11 -13z"/>
<path d="M2630 1370 c0 -5 7 -10 15 -10 8 0 15 5 15 10 0 6 -7 10 -15 10 -8 0
-15 -4 -15 -10z"/>
<path d="M2697 1374 c-8 -8 1 -24 14 -24 5 0 9 7 9 15 0 15 -12 20 -23 9z"/>
<path d="M2575 1300 c-3 -5 1 -10 9 -10 9 0 16 5 16 10 0 6 -4 10 -9 10 -6 0
-13 -4 -16 -10z"/>
<path d="M2640 1300 c0 -5 4 -10 9 -10 6 0 13 5 16 10 3 6 -1 10 -9 10 -9 0
-16 -4 -16 -10z"/>
<path d="M2690 1300 c0 -5 7 -10 15 -10 8 0 15 5 15 10 0 6 -7 10 -15 10 -8 0
-15 -4 -15 -10z"/>
<path d="M2750 1300 c0 -5 7 -10 15 -10 8 0 15 5 15 10 0 6 -7 10 -15 10 -8 0
-15 -4 -15 -10z"/>
<path d="M677 2236 c-4 -10 -5 -21 -2 -24 9 -9 17 6 13 25 -3 17 -4 17 -11 -1z"/>
<path d="M707 2223 c-10 -9 -9 -33 1 -33 4 0 8 9 9 20 2 21 0 24 -10 13z"/>
<path d="M737 2193 c-11 -10 -8 -33 3 -33 6 0 10 6 10 14 0 8 6 17 13 19 8 4
6 6 -4 6 -9 1 -19 -2 -22 -6z"/>
<path d="M770 2128 c-7 -15 -9 -35 -5 -45 6 -15 9 -12 17 15 12 44 4 64 -12
30z"/>
<path d="M806 2082 c-10 -12 -16 -28 -14 -38 2 -15 6 -13 21 10 23 34 18 55
-7 28z"/>
<path d="M838 2033 c-10 -11 -18 -28 -18 -39 0 -17 1 -17 21 3 12 11 19 28 17
38 -3 16 -4 16 -20 -2z"/>
<path d="M852 1976 c-23 -30 -30 -66 -12 -66 6 0 10 5 10 12 0 6 7 19 16 29 9
10 14 26 12 35 -3 16 -7 14 -26 -10z"/>
<path d="M866 1914 c-10 -27 -7 -56 7 -52 14 5 23 68 9 68 -6 0 -13 -7 -16
-16z"/>
<path d="M907 1893 c-11 -10 -8 -71 3 -78 6 -4 10 12 10 39 0 47 -2 51 -13 39z"/>
<path d="M960 1842 c0 -12 19 -26 26 -19 2 2 -2 10 -11 17 -9 8 -15 8 -15 2z"/>
<path d="M2712 2269 c2 -6 8 -10 13 -10 5 0 11 4 13 10 2 6 -4 11 -13 11 -9 0
-15 -5 -13 -11z"/>
<path d="M2770 2264 c0 -9 5 -14 12 -12 18 6 21 28 4 28 -9 0 -16 -7 -16 -16z"/>
<path d="M2770 2206 c0 -9 7 -16 16 -16 17 0 14 22 -4 28 -7 2 -12 -3 -12 -12z"/>
<path d="M2777 2153 c-12 -11 -8 -23 8 -23 8 0 15 7 15 15 0 16 -12 20 -23 8z"/>
<path d="M2780 2065 c0 -8 7 -15 15 -15 8 0 15 7 15 15 0 8 -7 15 -15 15 -8 0
-15 -7 -15 -15z"/>
<path d="M3140 2255 c0 -8 7 -15 15 -15 8 0 15 7 15 15 0 8 -7 15 -15 15 -8 0
-15 -7 -15 -15z"/>
<path d="M3190 2184 c0 -9 5 -14 12 -12 18 6 21 28 4 28 -9 0 -16 -7 -16 -16z"/>
<path d="M3232 2188 c6 -18 28 -21 28 -4 0 9 -7 16 -16 16 -9 0 -14 -5 -12
-12z"/>
<path d="M3300 2174 c0 -9 5 -14 12 -12 18 6 21 28 4 28 -9 0 -16 -7 -16 -16z"/>
<path d="M3240 2115 c0 -8 7 -15 15 -15 8 0 15 7 15 15 0 8 -7 15 -15 15 -8 0
-15 -7 -15 -15z"/>
<path d="M3300 2104 c0 -9 5 -14 12 -12 18 6 21 28 4 28 -9 0 -16 -7 -16 -16z"/>
<path d="M3370 2106 c0 -9 7 -16 16 -16 17 0 14 22 -4 28 -7 2 -12 -3 -12 -12z"/>
<path d="M3370 2035 c0 -8 7 -15 15 -15 8 0 15 7 15 15 0 8 -7 15 -15 15 -8 0
-15 -7 -15 -15z"/>
<path d="M3372 1978 c6 -18 28 -21 28 -4 0 9 -7 16 -16 16 -9 0 -14 -5 -12
-12z"/>
<path d="M3370 1925 c0 -8 7 -15 15 -15 8 0 15 7 15 15 0 8 -7 15 -15 15 -8 0
-15 -7 -15 -15z"/>
<path d="M1360 1726 c0 -9 7 -16 16 -16 9 0 14 5 12 12 -6 18 -28 21 -28 4z"/>
<path d="M1420 1725 c0 -8 7 -15 15 -15 8 0 15 7 15 15 0 8 -7 15 -15 15 -8 0
-15 -7 -15 -15z"/>
<path d="M1420 1676 c0 -9 7 -16 16 -16 17 0 14 22 -4 28 -7 2 -12 -3 -12 -12z"/>
<path d="M1490 1605 c0 -8 7 -15 15 -15 8 0 15 7 15 15 0 8 -7 15 -15 15 -8 0
-15 -7 -15 -15z"/>
<path d="M1430 1596 c0 -9 7 -16 16 -16 17 0 14 22 -4 28 -7 2 -12 -3 -12 -12z"/>
<path d="M1555 1460 c-3 -6 1 -13 10 -16 19 -8 30 0 20 15 -8 14 -22 14 -30 1z"/>
<path d="M830 1520 c0 -5 7 -10 15 -10 8 0 15 5 15 10 0 6 -7 10 -15 10 -8 0
-15 -4 -15 -10z"/>
<path d="M880 1520 c0 -5 7 -10 15 -10 8 0 15 5 15 10 0 6 -7 10 -15 10 -8 0
-15 -4 -15 -10z"/>
<path d="M710 1460 c0 -5 9 -10 20 -10 11 0 20 5 20 10 0 6 -9 10 -20 10 -11
0 -20 -4 -20 -10z"/>
<path d="M770 1460 c0 -5 7 -10 15 -10 8 0 15 5 15 10 0 6 -7 10 -15 10 -8 0
-15 -4 -15 -10z"/>
<path d="M830 1460 c0 -5 7 -10 15 -10 8 0 15 5 15 10 0 6 -7 10 -15 10 -8 0
-15 -4 -15 -10z"/>
<path d="M890 1460 c0 -5 7 -10 15 -10 8 0 15 5 15 10 0 6 -7 10 -15 10 -8 0
-15 -4 -15 -10z"/>
<path d="M940 1456 c0 -9 7 -16 16 -16 17 0 14 22 -4 28 -7 2 -12 -3 -12 -12z"/>
<path d="M997 1463 c-12 -11 -8 -23 8 -23 8 0 15 7 15 15 0 16 -12 20 -23 8z"/>
<path d="M1040 1445 c0 -9 5 -15 11 -13 6 2 11 8 11 13 0 5 -5 11 -11 13 -6 2
-11 -4 -11 -13z"/>
<path d="M1090 1445 c0 -8 7 -15 15 -15 8 0 15 7 15 15 0 8 -7 15 -15 15 -8 0
-15 -7 -15 -15z"/>
<path d="M1140 1450 c0 -5 9 -10 20 -10 11 0 20 5 20 10 0 6 -9 10 -20 10 -11
0 -20 -4 -20 -10z"/>
<path d="M777 1403 c-12 -11 -8 -23 8 -23 8 0 15 7 15 15 0 16 -12 20 -23 8z"/>
<path d="M830 1390 c0 -5 7 -10 15 -10 8 0 15 5 15 10 0 6 -7 10 -15 10 -8 0
-15 -4 -15 -10z"/>
<path d="M880 1380 c0 -5 7 -10 15 -10 8 0 15 5 15 10 0 6 -7 10 -15 10 -8 0
-15 -4 -15 -10z"/>
<path d="M940 1380 c0 -5 7 -10 15 -10 8 0 15 5 15 10 0 6 -7 10 -15 10 -8 0
-15 -4 -15 -10z"/>
<path d="M990 1380 c0 -5 7 -10 15 -10 8 0 15 5 15 10 0 6 -7 10 -15 10 -8 0
-15 -4 -15 -10z"/>
<path d="M1040 1380 c0 -5 7 -10 15 -10 8 0 15 5 15 10 0 6 -7 10 -15 10 -8 0
-15 -4 -15 -10z"/>
<path d="M1100 1374 c0 -17 22 -14 28 4 2 7 -3 12 -12 12 -9 0 -16 -7 -16 -16z"/>
<path d="M1140 1380 c0 -5 9 -10 20 -10 11 0 20 5 20 10 0 6 -9 10 -20 10 -11
0 -20 -4 -20 -10z"/>
<path d="M1202 1378 c6 -18 28 -21 28 -4 0 9 -7 16 -16 16 -9 0 -14 -5 -12
-12z"/>
<path d="M1262 1378 c6 -18 28 -21 28 -4 0 9 -7 16 -16 16 -9 0 -14 -5 -12
-12z"/>
<path d="M777 1333 c-12 -11 -8 -23 8 -23 8 0 15 7 15 15 0 16 -12 20 -23 8z"/>
<path d="M840 1315 c0 -8 7 -15 15 -15 8 0 15 7 15 15 0 8 -7 15 -15 15 -8 0
-15 -7 -15 -15z"/>
<path d="M890 1315 c0 -8 7 -15 15 -15 8 0 15 7 15 15 0 8 -7 15 -15 15 -8 0
-15 -7 -15 -15z"/>
<path d="M942 1318 c6 -18 28 -21 28 -4 0 9 -7 16 -16 16 -9 0 -14 -5 -12 -12z"/>
<path d="M992 1318 c6 -18 28 -21 28 -4 0 9 -7 16 -16 16 -9 0 -14 -5 -12 -12z"/>
<path d="M1047 1323 c-12 -11 -8 -23 8 -23 8 0 15 7 15 15 0 16 -12 20 -23 8z"/>
<path d="M1100 1316 c0 -9 7 -16 16 -16 9 0 14 5 12 12 -6 18 -28 21 -28 4z"/>
<path d="M1145 1321 c-3 -5 -1 -12 5 -16 12 -7 30 2 30 16 0 12 -27 12 -35 0z"/>
<path d="M1207 1323 c-12 -11 -8 -23 8 -23 8 0 15 7 15 15 0 16 -12 20 -23 8z"/>
<path d="M1262 1318 c6 -18 28 -21 28 -4 0 9 -7 16 -16 16 -9 0 -14 -5 -12
-12z"/>
<path d="M3237 1493 c-12 -11 -8 -23 8 -23 8 0 15 7 15 15 0 16 -12 20 -23 8z"/>
<path d="M3220 1415 c0 -8 7 -15 15 -15 8 0 15 7 15 15 0 8 -7 15 -15 15 -8 0
-15 -7 -15 -15z"/>
<path d="M3217 1363 c-12 -11 -8 -23 8 -23 8 0 15 7 15 15 0 16 -12 20 -23 8z"/>
<path d="M1590 657 c0 -8 9 -26 21 -41 17 -22 28 -26 69 -26 46 0 50 -2 87
-50 34 -44 63 -64 63 -42 0 14 -112 133 -139 146 -15 8 -43 17 -64 21 -29 6
-37 4 -37 -8z"/>
<path d="M3396 661 c-4 -6 2 -25 14 -41 19 -26 27 -30 68 -30 45 1 50 -2 99
-57 29 -32 53 -51 53 -43 0 21 -79 116 -121 145 -40 28 -103 42 -113 26z"/>
<path d="M464 455 c-13 -33 4 -45 61 -45 l55 0 0 -49 c0 -58 -16 -76 -53 -62
-19 8 -28 6 -38 -5 -27 -32 27 -129 134 -241 37 -39 77 -56 77 -34 0 10 -71
81 -82 81 -4 0 -14 12 -22 27 -12 25 -12 32 8 70 24 48 37 52 73 23 19 -14 41
-20 79 -20 l54 0 0 -69 c0 -54 4 -74 21 -95 11 -14 25 -26 30 -26 5 0 9 84 9
200 l0 200 198 -2 197 -3 3 -27 c2 -17 -4 -34 -17 -47 -19 -19 -33 -21 -131
-21 -79 0 -119 -4 -140 -15 -54 -28 -64 -78 -30 -146 23 -45 110 -139 128
-139 24 0 11 25 -38 70 -44 41 -50 51 -50 86 0 64 28 84 121 84 72 0 75 -1 92
-30 29 -49 84 -85 131 -85 23 0 51 4 64 8 20 8 22 6 22 -32 0 -28 8 -48 26
-70 14 -17 30 -31 35 -31 5 0 9 86 9 200 l0 200 65 0 66 0 -3 -77 c-3 -77 -3
-78 -30 -81 -41 -5 -37 -42 9 -92 27 -31 43 -40 62 -38 21 2 27 9 29 36 l3 32
75 0 74 0 0 -68 c0 -59 3 -72 23 -90 13 -12 26 -22 30 -22 4 0 7 90 7 200 l0
200 150 0 150 0 0 -55 c0 -30 -2 -55 -5 -55 -3 0 -24 9 -47 21 -51 26 -109 21
-144 -12 -42 -40 -26 -110 37 -164 27 -22 40 -26 78 -23 25 3 53 8 62 12 13 6
17 -1 21 -39 5 -42 30 -85 50 -85 4 0 8 90 8 199 l0 200 28 3 c21 2 27 8 27
28 l0 25 -923 3 c-814 2 -923 0 -928 -13z m346 -110 c0 -78 -9 -85 -104 -85
l-66 0 0 75 0 75 85 0 85 0 0 -65z m618 3 c4 -76 -17 -124 -62 -143 -46 -19
-86 -19 -114 1 -31 22 -27 38 12 52 42 15 50 36 37 93 -6 24 -11 48 -11 52 0
4 30 7 68 5 l67 -3 3 -57z m412 -18 l0 -80 -80 0 -80 0 0 80 0 80 80 0 80 0 0
-80z m346 -50 c9 0 14 -11 14 -30 0 -36 -40 -65 -102 -75 -65 -11 -88 27 -48
78 22 28 50 37 94 31 16 -2 35 -4 42 -4z"/>
<path d="M2494 455 c-4 -8 -4 -22 0 -30 4 -13 35 -15 191 -15 l185 0 0 -50 0
-50 -110 0 c-60 0 -110 -3 -110 -6 0 -3 16 -26 35 -51 19 -25 35 -51 35 -58 0
-23 -27 -48 -54 -48 -41 0 -77 33 -109 96 -16 32 -33 57 -38 57 -43 0 60 -174
123 -206 90 -46 158 14 113 100 -24 46 -14 56 55 56 l60 0 0 -99 c0 -96 1
-100 26 -120 15 -12 31 -21 35 -21 5 0 9 90 9 200 l0 200 80 0 80 0 0 -34 c0
-42 -29 -66 -77 -66 -18 0 -33 -3 -33 -7 0 -3 14 -28 31 -54 61 -96 131 -134
200 -110 18 6 34 11 35 11 2 0 4 -19 4 -43 0 -34 6 -49 28 -70 15 -15 31 -27
35 -27 4 0 7 90 7 200 l0 200 155 0 155 0 0 -50 0 -50 -80 0 c-117 0 -160 -27
-160 -100 0 -18 8 -48 17 -67 18 -39 115 -143 132 -143 24 0 8 29 -39 72 -46
42 -50 49 -50 91 0 66 30 87 121 87 l69 0 0 -98 c0 -90 2 -100 23 -120 13 -12
26 -22 30 -22 4 0 7 90 7 199 0 199 0 200 23 203 16 2 22 10 22 28 l0 25 -628
3 c-552 2 -628 0 -633 -13z m766 -118 c0 -80 -12 -107 -60 -132 -35 -18 -70
-19 -104 -4 -39 18 -39 36 2 56 l37 18 -2 68 -2 67 64 0 65 0 0 -73z"/>
</g>
</svg>
